<?xml version="1.0" encoding="utf-8"?>
<!-- Generator: Adobe Illustrator 27.9.0, SVG Export Plug-In . SVG Version: 6.00 Build 0)  -->
<svg version="1.1" id="Layer_1" xmlns="http://www.w3.org/2000/svg" xmlns:xlink="http://www.w3.org/1999/xlink" x="0px" y="0px"
	 viewBox="0 0 776 306" style="enable-background:new 0 0 776 306;" xml:space="preserve">
<style type="text/css">
	.st0{fill:none;stroke:#82CAB4;stroke-width:2;}
	.st1{fill:none;stroke:#83AFA3;stroke-width:2;}
	.st2{fill:#FFFFFF;}
	.st3{fill:#059569;}
	.st4{fill:#065F46;}
</style>
<g>
	<g>
		<path vector-effect="non-scaling-stroke" class="st0" d="M529.8,74.3c0-0.1-0.1-0.3-0.3-0.3l0,0h-7.2c-0.1,0-0.3,0.1-0.3,0.3l0,0
			v70.3c0,0.1,0.1,0.3,0.3,0.3l0,0h7.2c0.1,0,0.3-0.1,0.3-0.3l0,0V74.3"/>
		<path vector-effect="non-scaling-stroke" class="st0" d="M30.6,89.6L49.4,143c0.1,0.3,0.3,0.4,0.5,0.4l6.9-0.1
			c0.4,0,0.6-0.2,0.8-0.6l19.7-53.5c0.1-0.1,0.2-0.2,0.4-0.2c0.1,0,0.2,0.1,0.2,0.2l4.6,54.8c0,0.3,0.3,0.6,0.7,0.6l7.1,0.1
			c0.2,0,0.4-0.2,0.4-0.4c0,0,0,0,0-0.1l-5.9-67.1c0-0.2-0.2-0.4-0.4-0.4L74.8,77c-0.3,0-0.6,0.2-0.7,0.5l-20.3,54.8
			c-0.1,0.2-0.2,0.3-0.4,0.2c-0.1,0-0.2-0.1-0.2-0.2L34,77.6c-0.1-0.3-0.4-0.6-0.8-0.6h-9.4c-0.4,0-0.6,0.2-0.7,0.6L18.4,144
			c0,0.5,0.2,0.7,0.7,0.7h6.7c0.4,0,0.7-0.2,0.7-0.7l3.9-54.5c0-0.1,0.1-0.1,0.2-0.1C30.5,89.5,30.6,89.5,30.6,89.6"/>
		<path vector-effect="non-scaling-stroke" class="st0" d="M364.3,84.3c0-0.2,0.1-0.3,0.3-0.3h17.7c0.2,0,0.3-0.1,0.3-0.3l0,0
			l-0.1-6.4c0-0.2-0.1-0.3-0.3-0.3h-44.1c-0.2,0-0.3,0.1-0.3,0.3v6.4c0,0.2,0.1,0.3,0.3,0.3H356c0.2,0,0.3,0.1,0.3,0.3v60.1
			c0,0.2,0.1,0.3,0.3,0.3l0,0h7.4c0.2,0,0.3-0.1,0.3-0.3L364.3,84.3"/>
		<path vector-effect="non-scaling-stroke" class="st0" d="M452.6,139.5l-0.1,4.8c0,0.3,0.2,0.5,0.5,0.5l0,0h6.7
			c0.4,0,0.6-0.2,0.6-0.6c-0.1-10.6-0.2-21.3-0.1-31.9c0.1-20.3-19.2-22.8-33.7-16.1c-0.4,0.2-0.5,0.5-0.5,0.9v6.5
			c0,0.3,0.2,0.5,0.5,0.5c0.1,0,0.2,0,0.2-0.1c5.8-3.4,11.8-4.5,18-3.4c6.9,1.3,7.5,7.5,7.7,13.4c0,0.8-0.4,1.2-1.2,1.1
			c-8.7-0.5-22.1-0.6-27.1,7.9c-2.5,4.3-2.8,8.6-1,13c4.8,11.5,21.7,12.3,28.9,3.4c0.1-0.1,0.2-0.1,0.4,0
			C452.6,139.3,452.6,139.4,452.6,139.5"/>
		<path vector-effect="non-scaling-stroke" class="st0" d="M509.4,95.5c-18.6-7.9-38.4,3.9-37.8,24.7c0.6,19.5,19.5,31.6,37.6,23
			c0.4-0.2,0.6-0.5,0.6-0.9V136c0-0.5-0.2-0.6-0.6-0.4c-4.8,2.9-9.6,3.8-14.6,2.8c-25.4-5.1-16.4-49,14.5-35.8
			c0.2,0.1,0.5,0,0.6-0.3c0-0.1,0-0.1,0-0.2V96C509.8,95.8,509.7,95.6,509.4,95.5"/>
		<path vector-effect="non-scaling-stroke" class="st0" d="M130.1,145.3c25.2-4,26.7-45.5,3.5-51.1
			C92.9,84.3,91.8,151.4,130.1,145.3"/>
		<path vector-effect="non-scaling-stroke" class="st0" d="M169.6,101.7v-7.4c0-0.4-0.2-0.6-0.6-0.6h-6.4c-0.5,0-0.8,0.2-0.8,0.8
			v49.7c0,0.3,0.2,0.5,0.5,0.5l6.8,0.1c0.3,0,0.5-0.2,0.5-0.5c-0.1-7.1-0.1-16.4,0.1-27.9c0.1-8.8,5.9-17,15.2-16.2
			c6.6,0.6,8.9,5.7,9.1,12c0.4,10.6,0.4,21.2,0.1,31.8c0,0.4,0.2,0.6,0.6,0.6h6.7c0.4,0,0.5-0.2,0.5-0.6c0-10.5,0-21,0-31.5
			c0-4.3-0.3-7.4-0.9-9.1c-4.5-13.8-24.5-13.6-31-1.7c-0.1,0.2-0.3,0.2-0.4,0.1C169.6,102,169.5,101.9,169.6,101.7"/>
		<path vector-effect="non-scaling-stroke" class="st0" d="M224.9,96.2c-10.1,6.2-13.2,18.5-10.8,29.8c3.9,18.3,23.5,23,39,16.5
			c0.3-0.1,0.5-0.4,0.5-0.7l0.1-6.3c0-0.2-0.1-0.3-0.3-0.3c-0.1,0-0.1,0-0.2,0c-11.9,6.1-29.5,3.9-31.5-12.2c0-0.4,0.1-0.5,0.5-0.5
			h33.7c0.3,0,0.5-0.2,0.5-0.5c1.3-8.4-0.1-18.6-6.8-24.2C242.9,92.2,232.1,91.8,224.9,96.2"/>
		<path vector-effect="non-scaling-stroke" class="st0" d="M399.7,102.3l0.1-7.9c0-0.4-0.2-0.7-0.6-0.7h-6.5c-0.4,0-0.6,0.2-0.6,0.6
			l-0.2,49.8c0,0.4,0.2,0.6,0.6,0.6h6.8c0.3,0,0.5-0.2,0.5-0.5c0-9.1,0-18.1,0.2-27.2c0.1-8.8,5.5-18.6,16-15.9
			c0.4,0.1,0.6-0.1,0.6-0.5V94c0-0.3-0.1-0.5-0.4-0.5c-5.7-0.8-10.3,1-13.9,5.2c-0.8,1-1.3,2.6-2.2,3.7
			C399.8,102.6,399.7,102.6,399.7,102.3"/>
		<path vector-effect="non-scaling-stroke" class="st0" d="M576.4,122.5H610c0.3,0,0.5-0.2,0.5-0.5c6.9-38.8-46.8-38.1-42.8,0.7
			c2.2,20.6,22.4,26.8,39.5,19.8c0.3-0.1,0.5-0.4,0.5-0.8v-6.5c0-0.3-0.1-0.4-0.4-0.2c-11.8,6.4-29.7,4.1-31.5-12
			C575.9,122.7,576,122.5,576.4,122.5"/>
		<path vector-effect="non-scaling-stroke" class="st0" d="M631.1,102v-7.5c0-0.5-0.2-0.8-0.8-0.8h-6.4c-0.4,0-0.6,0.2-0.6,0.6v49.6
			c0,0.5,0.2,0.7,0.7,0.7l6.6,0.1c0.3,0,0.4-0.1,0.4-0.4c0-9.1,0.1-18.2,0.3-27.4c0.2-8.7,5.3-18.7,15.8-15.8
			c0.2,0.1,0.5-0.1,0.6-0.3v-0.1l-0.1-6.8c0-0.4-0.2-0.6-0.6-0.6c-7.3-0.6-12.4,2.2-15.4,8.7C631.5,102.1,631.4,102.2,631.1,102
			C631.1,102.2,631.1,102.1,631.1,102"/>
		<path vector-effect="non-scaling-stroke" class="st0" d="M287.2,133c0,0.1-0.2,0.2-0.3,0.2c-0.1,0-0.1-0.1-0.2-0.2l-15.2-38.7
			c-0.1-0.4-0.4-0.6-0.8-0.6h-7.5c-0.3,0-0.5,0.2-0.5,0.5c0,0.1,0,0.1,0,0.2c6.7,16.2,13.3,32.3,19.9,48.3c0.2,0.5,0.2,1-0.1,1.7
			c-3,7.8-8.6,11.2-16.8,10.5c-0.3,0-0.5,0.1-0.5,0.4v6c0,0.2,0.2,0.4,0.4,0.4c15,2.7,21.7-8.1,26.2-20.2
			c5.9-15.8,11.7-31.5,17.5-47.3c0.1-0.3,0-0.5-0.4-0.5h-7.5c-0.3,0-0.6,0.2-0.7,0.5L287.2,133"/>
		<path vector-effect="non-scaling-stroke" class="st0" d="M551.2,93.8c-0.1,0-0.2,0-0.3,0.1l-19.8,24c-0.1,0.1-0.1,0.3,0,0.4
			l20.2,26.3c0.1,0.1,0.2,0.1,0.3,0.1l8.8,0.1c0.2,0,0.3-0.2,0.3-0.3s0-0.1-0.1-0.2l-20.1-26c-0.1-0.1-0.1-0.3,0-0.4l19.6-23.6
			c0.1-0.1,0.1-0.3,0-0.5c-0.1,0-0.1-0.1-0.2-0.1L551.2,93.8"/>
		<path vector-effect="non-scaling-stroke" class="st0" d="M640.2,172c-204.9-0.6-409.8,0.3-614.7-0.1c-4,0-5.5-0.3-8.1,2
			c-0.8,0.7-1,2-0.5,2.9c1.2,2.1,3.7,2.8,6.2,2.8c206.8,0,413.5,0,620.3,0c8.7,0,7.2-8.4-0.5-7.9C641.2,172,640.3,172,640.2,172"/>
		<path vector-effect="non-scaling-stroke" class="st1" d="M264.8,192.6c0-1.8-1.5-3.2-3.2-3.2s-3.2,1.5-3.2,3.2s1.5,3.2,3.2,3.2
			S264.8,194.4,264.8,192.6"/>
		<path vector-effect="non-scaling-stroke" class="st1" d="M580.1,192.6c0-1.8-1.5-3.2-3.2-3.2s-3.2,1.5-3.2,3.2s1.5,3.2,3.2,3.2
			S580.1,194.4,580.1,192.6"/>
		<path vector-effect="non-scaling-stroke" class="st1" d="M32.2,225.5c-3.6,2.1-8.5,0.4-11.7-2.1c-0.3-0.2-0.4-0.4-0.6-0.7
			l-2.3-5.1c-0.5-1-0.7-0.9-0.7,0.1l0.1,7.8c0,0.3,0.2,0.6,0.5,0.8c8.7,4.9,23.6,3,22.2-9.8c-0.8-7.3-10.3-7.9-14.9-12.7
			c-3.8-3.9-1.7-10.3,4-10.1c5.6,0.2,7.2,3.6,9,8.2c0.1,0.3,0.4,0.4,0.6,0.3c0.2-0.1,0.4-0.3,0.3-0.6l-0.6-8c0-0.3-0.1-0.4-0.4-0.5
			c-6.2-2.4-12.6-3.6-17.2,2c-3.8,4.5-3.7,10.3,1.6,13.6c3.6,2.3,9.9,4.8,11.9,7.6C36.1,219.2,35.4,223.7,32.2,225.5"/>
		<path vector-effect="non-scaling-stroke" class="st1" d="M465.8,223.4v-16.9c0-0.3,0.2-0.5,0.5-0.5h6.2c0.3,0,0.5-0.2,0.5-0.5
			l0.1-1.5c0-0.3-0.2-0.5-0.4-0.5c0,0,0,0-0.1,0h-6.4c-0.3,0-0.5-0.2-0.5-0.5v-5.2c0-0.7-0.2-0.8-0.6-0.2l-3.5,5.4
			c-0.2,0.3-0.5,0.5-0.8,0.7l-3.5,1.6c-0.2,0.1-0.2,0.3-0.1,0.5c0.1,0.1,0.2,0.2,0.3,0.2h3.3c0.3,0,0.5,0.2,0.5,0.5
			c0,4.4-1.1,16.3,0.9,19.8c2.5,4.3,8.9,3.1,11.5-0.5c0.1-0.2,0.1-0.5-0.1-0.6c-0.1-0.1-0.2-0.1-0.4-0.1c-2.4,0.6-4.8,0.3-7-0.9
			C466,224.1,465.8,223.8,465.8,223.4"/>
		<path vector-effect="non-scaling-stroke" class="st1" d="M53.3,223.5l-0.1-17c0-0.3,0.2-0.5,0.5-0.5h6.4c0.3,0,0.6-0.3,0.6-0.6
			v-0.1l-0.3-1.2c-0.1-0.4-0.4-0.6-0.8-0.6h-5.9c-0.3,0-0.6-0.3-0.6-0.6l0,0v-5c0-0.2-0.1-0.3-0.3-0.3c-0.1,0-0.2,0.1-0.3,0.2
			l-3.5,5.4c-0.2,0.3-0.4,0.5-0.7,0.6l-3.6,1.6c-0.2,0.1-0.3,0.3-0.2,0.5c0.1,0.1,0.2,0.2,0.3,0.2H48c0.4,0,0.7,0.2,0.7,0.7
			c0,4.9,0,9.7,0,14.6c0,4.3,0.7,7.1,5.3,7.7c3.1,0.4,5.5-0.6,6.9-3.1c0.1-0.2,0.1-0.5-0.2-0.7c-0.1-0.1-0.2-0.1-0.3-0.1
			c-2.3,0.4-4.5,0.2-6.6-0.8C53.5,224.2,53.3,223.9,53.3,223.5"/>
		<path vector-effect="non-scaling-stroke" class="st1" d="M243.2,223.4l0.1-16.8c0-0.4,0.2-0.6,0.6-0.6h5.9c0.5,0,0.8-0.2,0.8-0.8
			v-1.3c0-0.3-0.2-0.6-0.5-0.6l0,0l-6.1,0.2c-0.4,0-0.5-0.2-0.5-0.5v-5c0-0.2-0.2-0.4-0.4-0.4s-0.3,0.1-0.4,0.2l-3.7,5.6
			c-0.1,0.1-0.2,0.2-0.2,0.2l-3.6,1.6c-0.2,0.1-0.3,0.4-0.2,0.6c0.1,0.2,0.2,0.3,0.4,0.3h3c0.5,0,0.7,0.2,0.7,0.7c0,5.5,0,11,0,16.5
			c0,7.2,7.9,6.9,12.1,3.3c0.3-0.3,0.3-0.7,0.1-1c-0.2-0.2-0.4-0.3-0.6-0.2c-2.3,0.4-4.5,0.1-6.6-0.9
			C243.4,224.2,243.2,223.9,243.2,223.4"/>
		<path vector-effect="non-scaling-stroke" class="st1" d="M396.4,223.5l-0.4-16.8c0-0.4,0.3-0.7,0.6-0.7l0,0h6.4
			c0.5,0,0.8-0.3,0.7-0.8l-0.2-1.1c-0.1-0.4-0.3-0.6-0.7-0.6h-6.3c-0.3,0-0.5-0.2-0.5-0.5v-5c0-0.2-0.2-0.3-0.4-0.3
			c-0.1,0-0.2,0.1-0.3,0.2l-3.2,5.1c-0.2,0.3-0.5,0.6-0.8,0.7l-3.3,1.5c-0.2,0.1-0.3,0.4-0.2,0.6c0.1,0.2,0.3,0.3,0.4,0.3h2.8
			c0.5,0,0.7,0.2,0.7,0.7c0,4.1-1,16.6,0.9,19.7c2.5,4,9.1,3.2,11.4-0.7c0.1-0.2,0-0.4-0.1-0.5c-0.1,0-0.2-0.1-0.2,0
			c-2.4,0.5-4.7,0.2-6.9-0.9C396.6,224.2,396.4,223.9,396.4,223.5"/>
		<path vector-effect="non-scaling-stroke" class="st1" d="M574.3,226.1l-2.9,1.6c-0.2,0.1-0.3,0.4-0.1,0.6c0.1,0.1,0.2,0.2,0.4,0.2
			h10.5c0.3,0,0.5-0.2,0.5-0.5c0-0.2-0.1-0.4-0.3-0.5l-2.6-1.2c-0.3-0.1-0.5-0.4-0.5-0.8v-22.2c0-0.4-0.2-0.5-0.6-0.4l-6.9,2.8
			c-0.2,0.1-0.4,0.4-0.3,0.6c0,0.1,0.1,0.1,0.1,0.2l2.8,2.3c0.2,0.2,0.3,0.4,0.3,0.7v15.8C574.8,225.7,574.6,225.9,574.3,226.1"/>
		<path vector-effect="non-scaling-stroke" class="st1" d="M103.8,205.5l-0.3-2.3c-0.1-0.4-0.3-0.5-0.6-0.3l-6.1,2.7
			c-0.3,0.1-0.4,0.5-0.3,0.8c0,0.1,0.1,0.1,0.1,0.2l2.6,2.4c0.2,0.2,0.4,0.5,0.4,0.8v28.3c0,0.4-0.2,0.7-0.5,0.9l-3.1,1.7
			c-0.2,0.1-0.2,0.3-0.2,0.5c0.1,0.1,0.2,0.2,0.3,0.2h11.3c0.3,0,0.5-0.2,0.5-0.5c0-0.2-0.1-0.4-0.3-0.5l-3.3-1.4
			c-0.3-0.1-0.5-0.4-0.5-0.8v-9c0-0.4,0.3-0.7,0.7-0.7c0.1,0,0.1,0,0.2,0c22,4.4,22.2-26.5,7.7-25.6c-2.9,0.2-5.3,1.2-7.4,2.9
			c-0.3,0.2-0.7,0.2-0.9-0.1C103.9,205.8,103.9,205.6,103.8,205.5"/>
		<path vector-effect="non-scaling-stroke" class="st1" d="M215,205.9c-3.6,4.6-1.6,8.4,3,10.8c3.4,1.8,9.9,3.8,6.3,9.2
			c-0.2,0.4-0.6,0.7-1.1,0.8c-4.3,0.9-7.3-0.6-9.2-4.4c-1.1-2.4-1.7-2.2-1.7,0.4v3.8c0,0.3,0.1,0.6,0.5,0.7
			c4.7,2.4,12.2,2.9,15.3-2.2c4.9-8-5.2-10.6-10-13.9c-0.3-0.2-0.5-0.5-0.6-0.8c-2.6-7.4,7.6-6.5,9.6,0c0.1,0.3,0.4,0.5,0.8,0.4
			c0.2-0.1,0.4-0.3,0.4-0.6v-4.9c0-0.3-0.1-0.5-0.4-0.6C223.4,202.4,218.3,201.8,215,205.9"/>
		<path vector-effect="non-scaling-stroke" class="st1" d="M259.6,225.8c0,0.2-0.1,0.3-0.3,0.4l-3.3,1.5c-0.2,0.1-0.3,0.4-0.2,0.6
			c0.1,0.2,0.2,0.3,0.4,0.3l11-0.1c0.3,0,0.5-0.2,0.5-0.5c0-0.2-0.1-0.3-0.3-0.4l-3.1-1.6c-0.2-0.1-0.3-0.2-0.3-0.4v-22.4
			c0-0.3-0.2-0.5-0.5-0.5c-0.1,0-0.1,0-0.2,0l-6.8,3c-0.2,0.1-0.4,0.4-0.3,0.6c0,0.1,0.1,0.1,0.1,0.2l2.9,2.4
			c0.1,0.1,0.2,0.2,0.2,0.4v16.5"/>
		<path vector-effect="non-scaling-stroke" class="st1" d="M372.7,212c-3.7-1.7-3.5-6.1,0.7-6.8c3.6-0.7,5.5,2.8,7.1,5.3
			c0.1,0.2,0.4,0.3,0.6,0.1c0.1-0.1,0.2-0.2,0.2-0.4v-4.8c0-0.3-0.1-0.6-0.4-0.8c-10.4-6.1-21.5,5.8-9.8,12c2.1,1.1,4.2,2.3,6.2,3.6
			c0.3,0.2,0.5,0.4,0.6,0.8c3,7.8-8.8,7.8-11.3,0.3c-0.1-0.3-0.4-0.5-0.7-0.4c-0.2,0.1-0.4,0.3-0.4,0.5v5.1c0,0.3,0.1,0.6,0.4,0.7
			c3.8,2,7.5,2.4,11,1.2c4.9-1.7,7.5-8.1,2.9-11.9C377.7,214.7,375.3,213.2,372.7,212"/>
		<path vector-effect="non-scaling-stroke" class="st1" d="M422.9,213c0.1,0.6-0.3,1.3-0.9,1.4l0,0c-4.5,0.9-16.6,3.7-12.8,11.4
			c2.6,5.2,9.8,3.2,13.2,0.1c0.3-0.3,0.7-0.2,1,0c0.1,0.1,0.1,0.2,0.1,0.2c1.5,4.2,7,3.6,8.7,0.1c0.1-0.2,0-0.3-0.2-0.4l-4.2-0.4
			c-0.4,0-0.6-0.3-0.6-0.7c0-5.6,0-11.3,0-16.9c0-1.5-1.5-3.3-3.1-3.9c-5.2-2.1-9.8-1.1-13.6,2.9c-1,1-1.3,2.4-0.9,4.1
			c0.1,0.3,0.2,0.4,0.5,0.4l3.3,0.3c0.3,0,0.6-0.2,0.6-0.5c0,0,0,0,0-0.1c0-3.1,0.3-5.7,3.7-5.5C423.5,205.9,422.1,209.2,422.9,213"
			/>
		<path vector-effect="non-scaling-stroke" class="st1" d="M444.2,207l-0.5-3.8c0-0.4-0.2-0.5-0.6-0.3l-6.4,2.9
			c-0.3,0.2-0.4,0.4-0.1,0.6l3,2.5c0.2,0.2,0.3,0.4,0.3,0.7v15.5c0,0.3-0.1,0.6-0.4,0.8l-3.3,1.8c-0.2,0.1-0.3,0.4-0.2,0.6
			c0.1,0.1,0.2,0.2,0.4,0.2h11.3c0.3,0,0.5-0.2,0.5-0.5c0-0.2-0.1-0.4-0.3-0.5l-3.2-1.3c-0.3-0.1-0.5-0.4-0.5-0.8v-15.2
			c0-0.3,0.1-0.7,0.4-0.9c2.5-2.4,5.2-2.6,8.2-0.6c0.2,0.1,0.3,0.1,0.4-0.1l1.1-3.4c0.1-0.3,0-0.6-0.1-0.8c-2.7-3.5-7.9-0.5-9.2,2.7
			c-0.1,0.2-0.4,0.3-0.6,0.2C444.3,207.3,444.2,207.1,444.2,207"/>
		<path vector-effect="non-scaling-stroke" class="st1" d="M596.6,225.5v-16c0-0.3,0.1-0.5,0.4-0.7c3-2.1,8.6-3.2,10.6,0.5
			c1.6,3,0.8,12.1,0.8,15.8c0,0.4-0.2,0.6-0.5,0.8l-3.6,1.8c-0.2,0.1-0.2,0.3-0.1,0.5c0.1,0.1,0.2,0.2,0.3,0.2H616
			c0.3,0,0.5-0.2,0.5-0.5c0-0.2-0.1-0.3-0.3-0.4l-2.8-1.4c-0.3-0.2-0.5-0.4-0.5-0.8c0-5.1,0-10.1,0-15.2c0-9.3-10.8-8.8-15.6-3.7
			c-0.2,0.2-0.5,0.2-0.7,0c-0.1-0.1-0.1-0.2-0.1-0.3l-0.5-2.9c-0.1-0.4-0.3-0.6-0.7-0.4l-6,2.7c-0.4,0.2-0.5,0.4-0.1,0.7l2.6,2.4
			c0.3,0.3,0.4,0.6,0.4,1v15.5c0,0.3-0.1,0.4-0.3,0.6l-3.2,1.9c-0.2,0.1-0.2,0.3-0.1,0.5c0.1,0.1,0.2,0.2,0.3,0.2h11.4
			c0.2,0,0.4-0.2,0.4-0.4s-0.1-0.3-0.2-0.4l-3.4-1.6C596.7,226,596.6,225.8,596.6,225.5"/>
		<path vector-effect="non-scaling-stroke" class="st1" d="M626.3,229.6c-1.7,1-3.6,2-4,4.1c-2.5,12.7,24.6,10.1,22.6-2.7
			c-1.6-10.4-17.2-2.3-18.3-8c-0.8-4.5,4.8-2.5,6.7-2.5c7.3-0.1,12.2-7.2,7.9-13.8c-0.1-0.2-0.1-0.5,0.1-0.6
			c0.1-0.1,0.2-0.1,0.3-0.1l3.9,0.3c0.4,0,0.7-0.2,0.7-0.6V204c0-0.3-0.3-0.6-0.6-0.6l0,0c-3.7,0.2-6.2,0.5-10.2-0.4
			c-9.3-1.9-16.8,7.8-8.5,15.5c0.2,0.2,0.2,0.5,0,0.7l-0.1,0.1c-3.4,1.8-5.5,3.6-3.4,7.8c0.1,0.2,0.3,0.4,0.5,0.5l2.5,1.2
			C626.7,229.1,626.7,229.3,626.3,229.6"/>
		<path vector-effect="non-scaling-stroke" class="st1" d="M78.3,229.1c6.8-0.1,12.3-6.1,12.2-13.3c-0.1-7.3-5.7-13.1-12.5-13l0,0
			c-6.8,0.1-12.3,6.1-12.2,13.3C65.9,223.4,71.5,229.2,78.3,229.1L78.3,229.1"/>
		<path vector-effect="non-scaling-stroke" class="st1" d="M204.2,225.6c-0.9-0.1-1.4-0.6-1.4-1.5c0-4.9-0.1-10.1-0.3-15.5
			c-0.3-9.3-18.8-6-17.4,2.3c0.1,0.4,0.3,0.6,0.7,0.6h3.4c0.4,0,0.6-0.2,0.4-0.6c-2.2-7.5,10-7.9,8.5,2.9c-0.1,0.4-0.3,0.6-0.6,0.6
			c-3.6,0.6-8.2,1.5-11,3.9c-2.9,2.5-3.6,7.6,0,9.7c3.5,2,8.1,0.5,11-1.9c0.4-0.3,1-0.3,1.3,0.1c0.1,0.1,0.1,0.1,0.1,0.2
			c1.9,4,6.5,3.1,8.7-0.2c0.2-0.3,0.1-0.4-0.2-0.5L204.2,225.6"/>
		<path vector-effect="non-scaling-stroke" class="st1" d="M297.6,225.5c0-4.5,0-8.9,0-13.4c0-4.7-0.7-8.4-5.8-9.1
			c-3.9-0.6-7.3,0.7-10.1,3.9c-0.1,0.1-0.4,0.2-0.5,0c-0.1-0.1-0.1-0.1-0.1-0.2l-0.3-3.3c0-0.3-0.3-0.5-0.6-0.5c-0.1,0-0.1,0-0.2,0
			l-6.2,2.9c-0.4,0.2-0.4,0.4-0.1,0.7l2.7,2.2c0.3,0.2,0.4,0.5,0.4,0.8v15.9c0,0.3-0.2,0.6-0.5,0.8l-2.7,1.2
			c-0.3,0.1-0.4,0.5-0.3,0.8c0.1,0.2,0.3,0.4,0.6,0.4l11.1,0.1c0.2,0,0.4-0.2,0.4-0.4s-0.1-0.3-0.2-0.4l-3.6-1.7
			c-0.2-0.1-0.4-0.3-0.4-0.6l0.2-15.7c0-0.4,0.2-0.7,0.5-0.9c4-2.7,11.2-2.9,11.3,3.4c0,4.4,0,8.8,0,13.2c0,0.3-0.1,0.5-0.4,0.6
			l-2.9,1.2c-0.3,0.1-0.5,0.5-0.4,0.9c0.1,0.3,0.4,0.4,0.6,0.4h10.4c0.3,0,0.5-0.2,0.5-0.5c0-0.2-0.1-0.4-0.3-0.5l-2.6-1.3
			C297.7,226.1,297.6,225.9,297.6,225.5"/>
		<path vector-effect="non-scaling-stroke" class="st1" d="M326.1,206.2l4.4,0.1c0.4,0,0.6-0.2,0.6-0.6V204c0-0.4-0.2-0.6-0.6-0.6
			c-3.8,0.2-6.5,0.4-10.8-0.3c-9.8-1.7-16.4,8.3-8.2,15.7c0.2,0.2,0.2,0.5,0,0.7c-0.1,0.1-0.1,0.1-0.2,0.1L310,220
			c-0.3,0.1-0.5,0.2-0.7,0.4c-2.6,2-2.8,4.4-0.8,7c0.1,0.1,0.2,0.2,0.4,0.3l2.4,1.3c0.5,0.3,0.5,0.5,0,0.7c-4.2,1.5-6.2,5.7-3.2,9.3
			c4,4.9,13.8,3.1,18,0.2c4.5-3.1,5.4-12.1-1.2-13.4c-2.7-0.5-14.1,0.8-13.6-3.6c0.1-1.1,0.8-1.9,2-2.3c0.3-0.1,0.6-0.1,0.9,0
			c8.3,2.6,17.5-4.6,11.7-13.1C325.6,206.4,325.7,206.2,326.1,206.2"/>
		<path vector-effect="non-scaling-stroke" class="st1" d="M506,223.8c-0.9,3.7-5.1,3.9-7.9,2.4c-1.8-1-2.8-3.2-4-4.9
			c-0.1-0.2-0.4-0.2-0.5-0.1c-0.1,0.1-0.2,0.2-0.2,0.3v5c0,0.4,0.2,0.6,0.5,0.8c4.9,2.5,12.3,2.7,15.3-2.7c1.4-2.5,1.2-5-0.7-7.4
			c-2.3-3.1-11.9-4.9-10.4-9.6c0.5-1.5,1.5-2.3,3.2-2.5c3.9-0.6,5,2.9,7.1,5.4c0.2,0.2,0.4,0.2,0.6,0c0.1-0.1,0.2-0.2,0.2-0.3v-4.8
			c0-0.3-0.1-0.6-0.4-0.7c-4.4-2.7-8.4-2.6-11.9,0.2c-2.5,2-3.7,5.1-2.2,8C496.8,217.5,507.3,218.6,506,223.8"/>
		<path vector-effect="non-scaling-stroke" class="st1" d="M530,214.4c-5.1,1-12.9,2.5-13.3,8.1c-0.7,9.1,9.5,6.7,13.8,3.3
			c0.2-0.2,0.5-0.1,0.7,0.1c0,0,0,0,0,0.1c2.3,4.1,6.7,4.2,9,0.2c0.1-0.2,0.1-0.3-0.2-0.3l-4.4-0.5c-0.4-0.1-0.7-0.4-0.7-0.9
			c0.4-5.3,0.4-10.6,0-15.9c-0.6-8.9-16.8-6.6-17.7,1.9c0,0.4,0.2,0.7,0.6,0.7l0,0l3.5,0.4c0.4,0,0.6-0.2,0.5-0.6
			c-1.3-8.4,10.5-7,8.7,2.8C530.6,214.1,530.3,214.4,530,214.4"/>
		<path vector-effect="non-scaling-stroke" class="st1" d="M169.6,221.3l-7.5-17.3c-0.2-0.5-0.7-0.7-1.2-0.5
			c-0.2,0.1-0.4,0.3-0.5,0.5l-7.5,17.4c-0.1,0.2-0.3,0.2-0.4,0.2c-0.1,0-0.1-0.1-0.2-0.2l-5.4-14.5c-0.2-0.5,0.1-1.1,0.6-1.3l0,0
			l3.5-1.3c0.2-0.1,0.3-0.3,0.2-0.6c-0.1-0.2-0.2-0.3-0.4-0.3h-12.6c-0.2,0-0.4,0.2-0.4,0.4s0.1,0.3,0.3,0.4l3.2,1.5
			c0.3,0.1,0.5,0.3,0.6,0.6l8.4,21.8c0.1,0.4,0.6,0.6,1,0.4c0.2-0.1,0.3-0.2,0.4-0.4l7.9-17.4c0.2-0.5,0.4-0.5,0.6,0l7.5,17.2
			c0.2,0.4,0.7,0.6,1.1,0.5c0.2-0.1,0.4-0.3,0.5-0.5l9-21.5c0.1-0.2,0.3-0.4,0.5-0.5l3.6-1.7c0.2-0.1,0.3-0.4,0.2-0.6
			c-0.1-0.2-0.2-0.3-0.4-0.3H172c-0.2,0-0.4,0.2-0.4,0.4s0.1,0.3,0.2,0.4l3.6,1.8c0.2,0.1,0.3,0.4,0.2,0.6L170,221
			c-0.1,0.1-0.2,0.2-0.4,0.2C169.7,221.4,169.7,221.3,169.6,221.3"/>
		<path vector-effect="non-scaling-stroke" class="st1" d="M555.9,221.7l-7-15.2c-0.1-0.3,0-0.6,0.3-0.7l0,0l4-1.4
			c0.2-0.1,0.4-0.4,0.3-0.6c-0.1-0.2-0.2-0.3-0.4-0.3h-12.2c-0.4,0-0.7,0.3-0.7,0.6s0.2,0.5,0.4,0.6l2.6,1c0.3,0.1,0.6,0.4,0.8,0.7
			l9.9,21.7c0.2,0.4,0.7,0.6,1.1,0.4c0.2-0.1,0.3-0.2,0.4-0.4c2.9-6.5,5.9-13,8.9-19.6c1.1-2.4,2.1-3.3,4.6-3.7
			c0.3-0.1,0.6-0.4,0.5-0.7s-0.3-0.5-0.6-0.5h-9.7c-0.3,0-0.5,0.2-0.5,0.4s0.1,0.4,0.3,0.4l3.5,1.7c0.2,0.1,0.3,0.3,0.2,0.5
			l-6.3,15.1c0,0.1-0.2,0.2-0.3,0.1C555.9,221.8,555.9,221.7,555.9,221.7"/>
		<path vector-effect="non-scaling-stroke" class="st1" d="M339,223.2l-2,3.6c-0.2,0.3-0.1,0.5,0.2,0.7c3.3,1.8,5.8,4.3,3.6,8.4
			c-0.7,1.3-2.4,2.1-3.4,3.3c-0.4,0.5-0.4,0.6,0.3,0.4c7.1-2.6,11.1-14.2,2-16.6C339.4,222.8,339.2,222.9,339,223.2"/>
		<path vector-effect="non-scaling-stroke" class="st0" d="M432,126.2c-1.8,2.7-1.9,5.3-0.4,7.8c4.5,7.6,17.1,5.2,20-2.5
			c1-2.8,0.8-6.5,0.8-9.7c0-0.3-0.2-0.5-0.5-0.5C445.8,121,435.8,120.3,432,126.2"/>
		<path vector-effect="non-scaling-stroke" class="st0" d="M135.6,103.4c-7-5.2-16.6-4.3-21.5,3c-6.7,10-4.7,30.2,9.9,31.9
			c8.8,1,14.4-3.7,16.7-12C142.6,119.8,141.9,108.1,135.6,103.4"/>
		<path vector-effect="non-scaling-stroke" class="st0" d="M222.5,116.2l26.3-0.3c0.3,0,0.6-0.3,0.6-0.6l0,0v-0.2
			c-0.1-8.3-5.9-15-12.9-14.9l0,0h-1.9c-7,0.1-12.7,6.9-12.6,15.2v0.2C221.9,116,222.2,116.2,222.5,116.2L222.5,116.2"/>
		<path vector-effect="non-scaling-stroke" class="st0" d="M576.4,116.1l26.9-0.1c0.1,0,0.2-0.1,0.2-0.2V115c0-8.2-6-14.8-13.4-14.8
			l0,0h-0.8c-7.3,0-13.3,6.7-13.2,15v0.7C576.1,116,576.2,116.1,576.4,116.1"/>
		<path vector-effect="non-scaling-stroke" class="st1" d="M104.3,224.4c18.8,11,17.2-25.5,0.4-16.4c-0.3,0.2-0.5,0.4-0.6,0.7
			c-1,4.6,0.1,10.2-0.2,15C103.9,224,104.1,224.2,104.3,224.4"/>
		<path vector-effect="non-scaling-stroke" class="st1" d="M413.3,221.1c-1.9,5.8,6.4,4.5,8.9,3.4c0.3-0.1,0.5-0.4,0.5-0.7l0.1-6.9
			c0-0.3-0.2-0.5-0.5-0.5C419.3,216.5,414.4,217.8,413.3,221.1"/>
		<path vector-effect="non-scaling-stroke" class="st1" d="M633.7,218.2c2.9-0.4,4.9-3.5,4.5-7.1s-3.1-6.2-6-5.9
			c-2.9,0.4-4.9,3.5-4.5,7.1l0,0C628.1,215.9,630.8,218.5,633.7,218.2L633.7,218.2"/>
		<path vector-effect="non-scaling-stroke" class="st1" d="M627.1,230.4c-6.4,13.1,15.7,12.5,13.7,2c-0.8-4.4-8.8-3.2-12-3.1
			C628.1,229.3,627.4,229.7,627.1,230.4"/>
		<path vector-effect="non-scaling-stroke" class="st1" d="M79.1,226.8c4-0.4,6.7-5.5,6.2-11.5l0,0c-0.5-6-4.2-10.6-8.2-10.2l0,0
			c-4,0.4-6.7,5.5-6.2,11.5l0,0C71.5,222.6,75.2,227.1,79.1,226.8L79.1,226.8"/>
		<path vector-effect="non-scaling-stroke" class="st1" d="M188.7,223.3c1.6,3.5,6.5,2.3,9.1,1c0.3-0.2,0.4-0.4,0.4-0.8v-6.6
			c0-0.3-0.2-0.5-0.5-0.5C194,216.8,186.7,218.8,188.7,223.3"/>
		<path vector-effect="non-scaling-stroke" class="st1" d="M318.5,218.2c2.9-0.4,4.9-3.6,4.5-7.2c-0.4-3.6-3.2-6.2-6.1-5.9l0,0
			c-2.9,0.4-4.9,3.6-4.5,7.2C312.9,215.9,315.6,218.6,318.5,218.2L318.5,218.2"/>
		<path vector-effect="non-scaling-stroke" class="st1" d="M312.7,229.6c-7.4,8.4,6.2,15.2,11.7,7.2c1.5-2.1,1.8-5.5-0.6-6.9
			c-2.1-1.2-7.6-0.8-10.4-0.7C313.1,229.3,312.9,229.4,312.7,229.6"/>
		<path vector-effect="non-scaling-stroke" class="st1" d="M530.3,216.5c-12.5,0.1-11.7,13.3-0.1,8.1c0.3-0.1,0.5-0.4,0.5-0.7l0.1-7
			C530.6,216.6,530.5,216.5,530.3,216.5"/>
	</g>
	<path class="st2" d="M529.8,74.3c0-0.1-0.1-0.3-0.3-0.3l0,0h-7.2c-0.1,0-0.3,0.1-0.3,0.3l0,0v70.3c0,0.1,0.1,0.3,0.3,0.3l0,0h7.2
		c0.1,0,0.3-0.1,0.3-0.3l0,0V74.3z M30.6,89.6L49.4,143c0.1,0.3,0.3,0.4,0.5,0.4l6.9-0.1c0.4,0,0.6-0.2,0.8-0.6l19.7-53.5
		c0.1-0.1,0.2-0.2,0.4-0.2c0.1,0,0.2,0.1,0.2,0.2l4.6,54.8c0,0.3,0.3,0.6,0.7,0.6l7.1,0.1c0.2,0,0.4-0.2,0.4-0.4c0,0,0,0,0-0.1
		l-5.9-67.1c0-0.2-0.2-0.4-0.4-0.4L74.8,77c-0.3,0-0.6,0.2-0.7,0.5l-20.3,54.8c-0.1,0.2-0.2,0.3-0.4,0.2c-0.1,0-0.2-0.1-0.2-0.2
		L34,77.6c-0.1-0.3-0.4-0.6-0.8-0.6h-9.4c-0.4,0-0.6,0.2-0.7,0.6L18.4,144c0,0.5,0.2,0.7,0.7,0.7h6.7c0.4,0,0.7-0.2,0.7-0.7
		l3.9-54.5c0-0.1,0.1-0.1,0.2-0.1C30.5,89.5,30.6,89.5,30.6,89.6z M364.3,84.3c0-0.2,0.1-0.3,0.3-0.3h17.7c0.2,0,0.3-0.1,0.3-0.3
		l0,0l-0.1-6.4c0-0.2-0.1-0.3-0.3-0.3h-44.1c-0.2,0-0.3,0.1-0.3,0.3v6.4c0,0.2,0.1,0.3,0.3,0.3H356c0.2,0,0.3,0.1,0.3,0.3v60.1
		c0,0.2,0.1,0.3,0.3,0.3l0,0h7.4c0.2,0,0.3-0.1,0.3-0.3L364.3,84.3L364.3,84.3z M452.6,139.5l-0.1,4.8c0,0.3,0.2,0.5,0.5,0.5l0,0
		h6.7c0.4,0,0.6-0.2,0.6-0.6c-0.1-10.6-0.2-21.3-0.1-31.9c0.1-20.3-19.2-22.8-33.7-16.1c-0.4,0.2-0.5,0.5-0.5,0.9v6.5
		c0,0.3,0.2,0.5,0.5,0.5c0.1,0,0.2,0,0.2-0.1c5.8-3.4,11.8-4.5,18-3.4c6.9,1.3,7.5,7.5,7.7,13.4c0,0.8-0.4,1.2-1.2,1.1
		c-8.7-0.5-22.1-0.6-27.1,7.9c-2.5,4.3-2.8,8.6-1,13c4.8,11.5,21.7,12.3,28.9,3.4c0.1-0.1,0.2-0.1,0.4,0
		C452.6,139.3,452.6,139.4,452.6,139.5z M509.4,95.5c-18.6-7.9-38.4,3.9-37.8,24.7c0.6,19.5,19.5,31.6,37.6,23
		c0.4-0.2,0.6-0.5,0.6-0.9V136c0-0.5-0.2-0.6-0.6-0.4c-4.8,2.9-9.6,3.8-14.6,2.8c-25.4-5.1-16.4-49,14.5-35.8c0.2,0.1,0.5,0,0.6-0.3
		c0-0.1,0-0.1,0-0.2V96C509.8,95.8,509.7,95.6,509.4,95.5z M130.1,145.3c25.2-4,26.7-45.5,3.5-51.1
		C92.9,84.3,91.8,151.4,130.1,145.3z M169.6,101.7v-7.4c0-0.4-0.2-0.6-0.6-0.6h-6.4c-0.5,0-0.8,0.2-0.8,0.8v49.7
		c0,0.3,0.2,0.5,0.5,0.5l6.8,0.1c0.3,0,0.5-0.2,0.5-0.5c-0.1-7.1-0.1-16.4,0.1-27.9c0.1-8.8,5.9-17,15.2-16.2
		c6.6,0.6,8.9,5.7,9.1,12c0.4,10.6,0.4,21.2,0.1,31.8c0,0.4,0.2,0.6,0.6,0.6h6.7c0.4,0,0.5-0.2,0.5-0.6c0-10.5,0-21,0-31.5
		c0-4.3-0.3-7.4-0.9-9.1c-4.5-13.8-24.5-13.6-31-1.7c-0.1,0.2-0.3,0.2-0.4,0.1C169.6,102,169.5,101.9,169.6,101.7z M224.9,96.2
		c-10.1,6.2-13.2,18.5-10.8,29.8c3.9,18.3,23.5,23,39,16.5c0.3-0.1,0.5-0.4,0.5-0.7l0.1-6.3c0-0.2-0.1-0.3-0.3-0.3
		c-0.1,0-0.1,0-0.2,0c-11.9,6.1-29.5,3.9-31.5-12.2c0-0.4,0.1-0.5,0.5-0.5h33.7c0.3,0,0.5-0.2,0.5-0.5c1.3-8.4-0.1-18.6-6.8-24.2
		C242.9,92.2,232.1,91.8,224.9,96.2z M399.7,102.3l0.1-7.9c0-0.4-0.2-0.7-0.6-0.7h-6.5c-0.4,0-0.6,0.2-0.6,0.6l-0.2,49.8
		c0,0.4,0.2,0.6,0.6,0.6h6.8c0.3,0,0.5-0.2,0.5-0.5c0-9.1,0-18.1,0.2-27.2c0.1-8.8,5.5-18.6,16-15.9c0.4,0.1,0.6-0.1,0.6-0.5V94
		c0-0.3-0.1-0.5-0.4-0.5c-5.7-0.8-10.3,1-13.9,5.2c-0.8,1-1.3,2.6-2.2,3.7C399.8,102.6,399.7,102.6,399.7,102.3z M576.4,122.5H610
		c0.3,0,0.5-0.2,0.5-0.5c6.9-38.8-46.8-38.1-42.8,0.7c2.2,20.6,22.4,26.8,39.5,19.8c0.3-0.1,0.5-0.4,0.5-0.8v-6.5
		c0-0.3-0.1-0.4-0.4-0.2c-11.8,6.4-29.7,4.1-31.5-12C575.9,122.7,576,122.5,576.4,122.5z M631.1,102v-7.5c0-0.5-0.2-0.8-0.8-0.8
		h-6.4c-0.4,0-0.6,0.2-0.6,0.6v49.6c0,0.5,0.2,0.7,0.7,0.7l6.6,0.1c0.3,0,0.4-0.1,0.4-0.4c0-9.1,0.1-18.2,0.3-27.4
		c0.2-8.7,5.3-18.7,15.8-15.8c0.2,0.1,0.5-0.1,0.6-0.3v-0.1l-0.1-6.8c0-0.4-0.2-0.6-0.6-0.6c-7.3-0.6-12.4,2.2-15.4,8.7
		C631.5,102.1,631.4,102.2,631.1,102C631.1,102.2,631.1,102.1,631.1,102z M287.2,133c0,0.1-0.2,0.2-0.3,0.2c-0.1,0-0.1-0.1-0.2-0.2
		l-15.2-38.7c-0.1-0.4-0.4-0.6-0.8-0.6h-7.5c-0.3,0-0.5,0.2-0.5,0.5c0,0.1,0,0.1,0,0.2c6.7,16.2,13.3,32.3,19.9,48.3
		c0.2,0.5,0.2,1-0.1,1.7c-3,7.8-8.6,11.2-16.8,10.5c-0.3,0-0.5,0.1-0.5,0.4v6c0,0.2,0.2,0.4,0.4,0.4c15,2.7,21.7-8.1,26.2-20.2
		c5.9-15.8,11.7-31.5,17.5-47.3c0.1-0.3,0-0.5-0.4-0.5h-7.5c-0.3,0-0.6,0.2-0.7,0.5L287.2,133z M551.2,93.8c-0.1,0-0.2,0-0.3,0.1
		l-19.8,24c-0.1,0.1-0.1,0.3,0,0.4l20.2,26.3c0.1,0.1,0.2,0.1,0.3,0.1l8.8,0.1c0.2,0,0.3-0.2,0.3-0.3s0-0.1-0.1-0.2l-20.1-26
		c-0.1-0.1-0.1-0.3,0-0.4l19.6-23.6c0.1-0.1,0.1-0.3,0-0.5c-0.1,0-0.1-0.1-0.2-0.1L551.2,93.8L551.2,93.8z M640.2,172
		c-204.9-0.6-409.8,0.3-614.7-0.1c-4,0-5.5-0.3-8.1,2c-0.8,0.7-1,2-0.5,2.9c1.2,2.1,3.7,2.8,6.2,2.8c206.8,0,413.5,0,620.3,0
		c8.7,0,7.2-8.4-0.5-7.9C641.2,172,640.3,172,640.2,172z M264.8,192.6c0-1.8-1.5-3.2-3.2-3.2s-3.2,1.5-3.2,3.2s1.5,3.2,3.2,3.2
		S264.8,194.4,264.8,192.6z M580.1,192.6c0-1.8-1.5-3.2-3.2-3.2s-3.2,1.5-3.2,3.2s1.5,3.2,3.2,3.2S580.1,194.4,580.1,192.6z
		 M32.2,225.5c-3.6,2.1-8.5,0.4-11.7-2.1c-0.3-0.2-0.4-0.4-0.6-0.7l-2.3-5.1c-0.5-1-0.7-0.9-0.7,0.1l0.1,7.8c0,0.3,0.2,0.6,0.5,0.8
		c8.7,4.9,23.6,3,22.2-9.8c-0.8-7.3-10.3-7.9-14.9-12.7c-3.8-3.9-1.7-10.3,4-10.1c5.6,0.2,7.2,3.6,9,8.2c0.1,0.3,0.4,0.4,0.6,0.3
		c0.2-0.1,0.4-0.3,0.3-0.6l-0.6-8c0-0.3-0.1-0.4-0.4-0.5c-6.2-2.4-12.6-3.6-17.2,2c-3.8,4.5-3.7,10.3,1.6,13.6
		c3.6,2.3,9.9,4.8,11.9,7.6C36.1,219.2,35.4,223.7,32.2,225.5z M465.8,223.4v-16.9c0-0.3,0.2-0.5,0.5-0.5h6.2c0.3,0,0.5-0.2,0.5-0.5
		l0.1-1.5c0-0.3-0.2-0.5-0.4-0.5c0,0,0,0-0.1,0h-6.4c-0.3,0-0.5-0.2-0.5-0.5v-5.2c0-0.7-0.2-0.8-0.6-0.2l-3.5,5.4
		c-0.2,0.3-0.5,0.5-0.8,0.7l-3.5,1.6c-0.2,0.1-0.2,0.3-0.1,0.5c0.1,0.1,0.2,0.2,0.3,0.2h3.3c0.3,0,0.5,0.2,0.5,0.5
		c0,4.4-1.1,16.3,0.9,19.8c2.5,4.3,8.9,3.1,11.5-0.5c0.1-0.2,0.1-0.5-0.1-0.6c-0.1-0.1-0.2-0.1-0.4-0.1c-2.4,0.6-4.8,0.3-7-0.9
		C466,224.1,465.8,223.8,465.8,223.4z M53.3,223.5l-0.1-17c0-0.3,0.2-0.5,0.5-0.5h6.4c0.3,0,0.6-0.3,0.6-0.6v-0.1l-0.3-1.2
		c-0.1-0.4-0.4-0.6-0.8-0.6h-5.9c-0.3,0-0.6-0.3-0.6-0.6l0,0v-5c0-0.2-0.1-0.3-0.3-0.3c-0.1,0-0.2,0.1-0.3,0.2l-3.5,5.4
		c-0.2,0.3-0.4,0.5-0.7,0.6l-3.6,1.6c-0.2,0.1-0.3,0.3-0.2,0.5c0.1,0.1,0.2,0.2,0.3,0.2H48c0.4,0,0.7,0.2,0.7,0.7
		c0,4.9,0,9.7,0,14.6c0,4.3,0.7,7.1,5.3,7.7c3.1,0.4,5.5-0.6,6.9-3.1c0.1-0.2,0.1-0.5-0.2-0.7c-0.1-0.1-0.2-0.1-0.3-0.1
		c-2.3,0.4-4.5,0.2-6.6-0.8C53.5,224.2,53.3,223.9,53.3,223.5z M243.2,223.4l0.1-16.8c0-0.4,0.2-0.6,0.6-0.6h5.9
		c0.5,0,0.8-0.2,0.8-0.8v-1.3c0-0.3-0.2-0.6-0.5-0.6l0,0l-6.1,0.2c-0.4,0-0.5-0.2-0.5-0.5v-5c0-0.2-0.2-0.4-0.4-0.4
		s-0.3,0.1-0.4,0.2l-3.7,5.6c-0.1,0.1-0.2,0.2-0.2,0.2l-3.6,1.6c-0.2,0.1-0.3,0.4-0.2,0.6c0.1,0.2,0.2,0.3,0.4,0.3h3
		c0.5,0,0.7,0.2,0.7,0.7c0,5.5,0,11,0,16.5c0,7.2,7.9,6.9,12.1,3.3c0.3-0.3,0.3-0.7,0.1-1c-0.2-0.2-0.4-0.3-0.6-0.2
		c-2.3,0.4-4.5,0.1-6.6-0.9C243.4,224.2,243.2,223.9,243.2,223.4z M396.4,223.5l-0.4-16.8c0-0.4,0.3-0.7,0.6-0.7l0,0h6.4
		c0.5,0,0.8-0.3,0.7-0.8l-0.2-1.1c-0.1-0.4-0.3-0.6-0.7-0.6h-6.3c-0.3,0-0.5-0.2-0.5-0.5v-5c0-0.2-0.2-0.3-0.4-0.3
		c-0.1,0-0.2,0.1-0.3,0.2l-3.2,5.1c-0.2,0.3-0.5,0.6-0.8,0.7l-3.3,1.5c-0.2,0.1-0.3,0.4-0.2,0.6c0.1,0.2,0.3,0.3,0.4,0.3h2.8
		c0.5,0,0.7,0.2,0.7,0.7c0,4.1-1,16.6,0.9,19.7c2.5,4,9.1,3.2,11.4-0.7c0.1-0.2,0-0.4-0.1-0.5c-0.1,0-0.2-0.1-0.2,0
		c-2.4,0.5-4.7,0.2-6.9-0.9C396.6,224.2,396.4,223.9,396.4,223.5z M574.3,226.1l-2.9,1.6c-0.2,0.1-0.3,0.4-0.1,0.6
		c0.1,0.1,0.2,0.2,0.4,0.2h10.5c0.3,0,0.5-0.2,0.5-0.5c0-0.2-0.1-0.4-0.3-0.5l-2.6-1.2c-0.3-0.1-0.5-0.4-0.5-0.8v-22.2
		c0-0.4-0.2-0.5-0.6-0.4l-6.9,2.8c-0.2,0.1-0.4,0.4-0.3,0.6c0,0.1,0.1,0.1,0.1,0.2l2.8,2.3c0.2,0.2,0.3,0.4,0.3,0.7v15.8
		C574.8,225.7,574.6,225.9,574.3,226.1z M103.8,205.5l-0.3-2.3c-0.1-0.4-0.3-0.5-0.6-0.3l-6.1,2.7c-0.3,0.1-0.4,0.5-0.3,0.8
		c0,0.1,0.1,0.1,0.1,0.2l2.6,2.4c0.2,0.2,0.4,0.5,0.4,0.8v28.3c0,0.4-0.2,0.7-0.5,0.9l-3.1,1.7c-0.2,0.1-0.2,0.3-0.2,0.5
		c0.1,0.1,0.2,0.2,0.3,0.2h11.3c0.3,0,0.5-0.2,0.5-0.5c0-0.2-0.1-0.4-0.3-0.5l-3.3-1.4c-0.3-0.1-0.5-0.4-0.5-0.8v-9
		c0-0.4,0.3-0.7,0.7-0.7c0.1,0,0.1,0,0.2,0c22,4.4,22.2-26.5,7.7-25.6c-2.9,0.2-5.3,1.2-7.4,2.9c-0.3,0.2-0.7,0.2-0.9-0.1
		C103.9,205.8,103.9,205.6,103.8,205.5z M215,205.9c-3.6,4.6-1.6,8.4,3,10.8c3.4,1.8,9.9,3.8,6.3,9.2c-0.2,0.4-0.6,0.7-1.1,0.8
		c-4.3,0.9-7.3-0.6-9.2-4.4c-1.1-2.4-1.7-2.2-1.7,0.4v3.8c0,0.3,0.1,0.6,0.5,0.7c4.7,2.4,12.2,2.9,15.3-2.2c4.9-8-5.2-10.6-10-13.9
		c-0.3-0.2-0.5-0.5-0.6-0.8c-2.6-7.4,7.6-6.5,9.6,0c0.1,0.3,0.4,0.5,0.8,0.4c0.2-0.1,0.4-0.3,0.4-0.6v-4.9c0-0.3-0.1-0.5-0.4-0.6
		C223.4,202.4,218.3,201.8,215,205.9z M259.6,225.8c0,0.2-0.1,0.3-0.3,0.4l-3.3,1.5c-0.2,0.1-0.3,0.4-0.2,0.6
		c0.1,0.2,0.2,0.3,0.4,0.3l11-0.1c0.3,0,0.5-0.2,0.5-0.5c0-0.2-0.1-0.3-0.3-0.4l-3.1-1.6c-0.2-0.1-0.3-0.2-0.3-0.4v-22.4
		c0-0.3-0.2-0.5-0.5-0.5c-0.1,0-0.1,0-0.2,0l-6.8,3c-0.2,0.1-0.4,0.4-0.3,0.6c0,0.1,0.1,0.1,0.1,0.2l2.9,2.4
		c0.1,0.1,0.2,0.2,0.2,0.4v16.5H259.6z M372.7,212c-3.7-1.7-3.5-6.1,0.7-6.8c3.6-0.7,5.5,2.8,7.1,5.3c0.1,0.2,0.4,0.3,0.6,0.1
		c0.1-0.1,0.2-0.2,0.2-0.4v-4.8c0-0.3-0.1-0.6-0.4-0.8c-10.4-6.1-21.5,5.8-9.8,12c2.1,1.1,4.2,2.3,6.2,3.6c0.3,0.2,0.5,0.4,0.6,0.8
		c3,7.8-8.8,7.8-11.3,0.3c-0.1-0.3-0.4-0.5-0.7-0.4c-0.2,0.1-0.4,0.3-0.4,0.5v5.1c0,0.3,0.1,0.6,0.4,0.7c3.8,2,7.5,2.4,11,1.2
		c4.9-1.7,7.5-8.1,2.9-11.9C377.7,214.7,375.3,213.2,372.7,212z M422.9,213c0.1,0.6-0.3,1.3-0.9,1.4l0,0
		c-4.5,0.9-16.6,3.7-12.8,11.4c2.6,5.2,9.8,3.2,13.2,0.1c0.3-0.3,0.7-0.2,1,0c0.1,0.1,0.1,0.2,0.1,0.2c1.5,4.2,7,3.6,8.7,0.1
		c0.1-0.2,0-0.3-0.2-0.4l-4.2-0.4c-0.4,0-0.6-0.3-0.6-0.7c0-5.6,0-11.3,0-16.9c0-1.5-1.5-3.3-3.1-3.9c-5.2-2.1-9.8-1.1-13.6,2.9
		c-1,1-1.3,2.4-0.9,4.1c0.1,0.3,0.2,0.4,0.5,0.4l3.3,0.3c0.3,0,0.6-0.2,0.6-0.5c0,0,0,0,0-0.1c0-3.1,0.3-5.7,3.7-5.5
		C423.5,205.9,422.1,209.2,422.9,213z M444.2,207l-0.5-3.8c0-0.4-0.2-0.5-0.6-0.3l-6.4,2.9c-0.3,0.2-0.4,0.4-0.1,0.6l3,2.5
		c0.2,0.2,0.3,0.4,0.3,0.7v15.5c0,0.3-0.1,0.6-0.4,0.8l-3.3,1.8c-0.2,0.1-0.3,0.4-0.2,0.6c0.1,0.1,0.2,0.2,0.4,0.2h11.3
		c0.3,0,0.5-0.2,0.5-0.5c0-0.2-0.1-0.4-0.3-0.5l-3.2-1.3c-0.3-0.1-0.5-0.4-0.5-0.8v-15.2c0-0.3,0.1-0.7,0.4-0.9
		c2.5-2.4,5.2-2.6,8.2-0.6c0.2,0.1,0.3,0.1,0.4-0.1l1.1-3.4c0.1-0.3,0-0.6-0.1-0.8c-2.7-3.5-7.9-0.5-9.2,2.7
		c-0.1,0.2-0.4,0.3-0.6,0.2C444.3,207.3,444.2,207.1,444.2,207z M596.6,225.5v-16c0-0.3,0.1-0.5,0.4-0.7c3-2.1,8.6-3.2,10.6,0.5
		c1.6,3,0.8,12.1,0.8,15.8c0,0.4-0.2,0.6-0.5,0.8l-3.6,1.8c-0.2,0.1-0.2,0.3-0.1,0.5c0.1,0.1,0.2,0.2,0.3,0.2H616
		c0.3,0,0.5-0.2,0.5-0.5c0-0.2-0.1-0.3-0.3-0.4l-2.8-1.4c-0.3-0.2-0.5-0.4-0.5-0.8c0-5.1,0-10.1,0-15.2c0-9.3-10.8-8.8-15.6-3.7
		c-0.2,0.2-0.5,0.2-0.7,0c-0.1-0.1-0.1-0.2-0.1-0.3l-0.5-2.9c-0.1-0.4-0.3-0.6-0.7-0.4l-6,2.7c-0.4,0.2-0.5,0.4-0.1,0.7l2.6,2.4
		c0.3,0.3,0.4,0.6,0.4,1v15.5c0,0.3-0.1,0.4-0.3,0.6l-3.2,1.9c-0.2,0.1-0.2,0.3-0.1,0.5c0.1,0.1,0.2,0.2,0.3,0.2h11.4
		c0.2,0,0.4-0.2,0.4-0.4s-0.1-0.3-0.2-0.4l-3.4-1.6C596.7,226,596.6,225.8,596.6,225.5z M626.3,229.6c-1.7,1-3.6,2-4,4.1
		c-2.5,12.7,24.6,10.1,22.6-2.7c-1.6-10.4-17.2-2.3-18.3-8c-0.8-4.5,4.8-2.5,6.7-2.5c7.3-0.1,12.2-7.2,7.9-13.8
		c-0.1-0.2-0.1-0.5,0.1-0.6c0.1-0.1,0.2-0.1,0.3-0.1l3.9,0.3c0.4,0,0.7-0.2,0.7-0.6V204c0-0.3-0.3-0.6-0.6-0.6l0,0
		c-3.7,0.2-6.2,0.5-10.2-0.4c-9.3-1.9-16.8,7.8-8.5,15.5c0.2,0.2,0.2,0.5,0,0.7l-0.1,0.1c-3.4,1.8-5.5,3.6-3.4,7.8
		c0.1,0.2,0.3,0.4,0.5,0.5l2.5,1.2C626.7,229.1,626.7,229.3,626.3,229.6z M78.3,229.1c6.8-0.1,12.3-6.1,12.2-13.3
		c-0.1-7.3-5.7-13.1-12.5-13l0,0c-6.8,0.1-12.3,6.1-12.2,13.3C65.9,223.4,71.5,229.2,78.3,229.1L78.3,229.1z M204.2,225.6
		c-0.9-0.1-1.4-0.6-1.4-1.5c0-4.9-0.1-10.1-0.3-15.5c-0.3-9.3-18.8-6-17.4,2.3c0.1,0.4,0.3,0.6,0.7,0.6h3.4c0.4,0,0.6-0.2,0.4-0.6
		c-2.2-7.5,10-7.9,8.5,2.9c-0.1,0.4-0.3,0.6-0.6,0.6c-3.6,0.6-8.2,1.5-11,3.9c-2.9,2.5-3.6,7.6,0,9.7c3.5,2,8.1,0.5,11-1.9
		c0.4-0.3,1-0.3,1.3,0.1c0.1,0.1,0.1,0.1,0.1,0.2c1.9,4,6.5,3.1,8.7-0.2c0.2-0.3,0.1-0.4-0.2-0.5L204.2,225.6z M297.6,225.5
		c0-4.5,0-8.9,0-13.4c0-4.7-0.7-8.4-5.8-9.1c-3.9-0.6-7.3,0.7-10.1,3.9c-0.1,0.1-0.4,0.2-0.5,0c-0.1-0.1-0.1-0.1-0.1-0.2l-0.3-3.3
		c0-0.3-0.3-0.5-0.6-0.5c-0.1,0-0.1,0-0.2,0l-6.2,2.9c-0.4,0.2-0.4,0.4-0.1,0.7l2.7,2.2c0.3,0.2,0.4,0.5,0.4,0.8v15.9
		c0,0.3-0.2,0.6-0.5,0.8l-2.7,1.2c-0.3,0.1-0.4,0.5-0.3,0.8c0.1,0.2,0.3,0.4,0.6,0.4l11.1,0.1c0.2,0,0.4-0.2,0.4-0.4
		s-0.1-0.3-0.2-0.4l-3.6-1.7c-0.2-0.1-0.4-0.3-0.4-0.6l0.2-15.7c0-0.4,0.2-0.7,0.5-0.9c4-2.7,11.2-2.9,11.3,3.4c0,4.4,0,8.8,0,13.2
		c0,0.3-0.1,0.5-0.4,0.6l-2.9,1.2c-0.3,0.1-0.5,0.5-0.4,0.9c0.1,0.3,0.4,0.4,0.6,0.4h10.4c0.3,0,0.5-0.2,0.5-0.5
		c0-0.2-0.1-0.4-0.3-0.5l-2.6-1.3C297.7,226.1,297.6,225.9,297.6,225.5z M326.1,206.2l4.4,0.1c0.4,0,0.6-0.2,0.6-0.6V204
		c0-0.4-0.2-0.6-0.6-0.6c-3.8,0.2-6.5,0.4-10.8-0.3c-9.8-1.7-16.4,8.3-8.2,15.7c0.2,0.2,0.2,0.5,0,0.7c-0.1,0.1-0.1,0.1-0.2,0.1
		L310,220c-0.3,0.1-0.5,0.2-0.7,0.4c-2.6,2-2.8,4.4-0.8,7c0.1,0.1,0.2,0.2,0.4,0.3l2.4,1.3c0.5,0.3,0.5,0.5,0,0.7
		c-4.2,1.5-6.2,5.7-3.2,9.3c4,4.9,13.8,3.1,18,0.2c4.5-3.1,5.4-12.1-1.2-13.4c-2.7-0.5-14.1,0.8-13.6-3.6c0.1-1.1,0.8-1.9,2-2.3
		c0.3-0.1,0.6-0.1,0.9,0c8.3,2.6,17.5-4.6,11.7-13.1C325.6,206.4,325.7,206.2,326.1,206.2z M506,223.8c-0.9,3.7-5.1,3.9-7.9,2.4
		c-1.8-1-2.8-3.2-4-4.9c-0.1-0.2-0.4-0.2-0.5-0.1c-0.1,0.1-0.2,0.2-0.2,0.3v5c0,0.4,0.2,0.6,0.5,0.8c4.9,2.5,12.3,2.7,15.3-2.7
		c1.4-2.5,1.2-5-0.7-7.4c-2.3-3.1-11.9-4.9-10.4-9.6c0.5-1.5,1.5-2.3,3.2-2.5c3.9-0.6,5,2.9,7.1,5.4c0.2,0.2,0.4,0.2,0.6,0
		c0.1-0.1,0.2-0.2,0.2-0.3v-4.8c0-0.3-0.1-0.6-0.4-0.7c-4.4-2.7-8.4-2.6-11.9,0.2c-2.5,2-3.7,5.1-2.2,8
		C496.8,217.5,507.3,218.6,506,223.8z M530,214.4c-5.1,1-12.9,2.5-13.3,8.1c-0.7,9.1,9.5,6.7,13.8,3.3c0.2-0.2,0.5-0.1,0.7,0.1
		c0,0,0,0,0,0.1c2.3,4.1,6.7,4.2,9,0.2c0.1-0.2,0.1-0.3-0.2-0.3l-4.4-0.5c-0.4-0.1-0.7-0.4-0.7-0.9c0.4-5.3,0.4-10.6,0-15.9
		c-0.6-8.9-16.8-6.6-17.7,1.9c0,0.4,0.2,0.7,0.6,0.7l0,0l3.5,0.4c0.4,0,0.6-0.2,0.5-0.6c-1.3-8.4,10.5-7,8.7,2.8
		C530.6,214.1,530.3,214.4,530,214.4z M169.6,221.3l-7.5-17.3c-0.2-0.5-0.7-0.7-1.2-0.5c-0.2,0.1-0.4,0.3-0.5,0.5l-7.5,17.4
		c-0.1,0.2-0.3,0.2-0.4,0.2c-0.1,0-0.1-0.1-0.2-0.2l-5.4-14.5c-0.2-0.5,0.1-1.1,0.6-1.3l0,0l3.5-1.3c0.2-0.1,0.3-0.3,0.2-0.6
		c-0.1-0.2-0.2-0.3-0.4-0.3h-12.6c-0.2,0-0.4,0.2-0.4,0.4s0.1,0.3,0.3,0.4l3.2,1.5c0.3,0.1,0.5,0.3,0.6,0.6l8.4,21.8
		c0.1,0.4,0.6,0.6,1,0.4c0.2-0.1,0.3-0.2,0.4-0.4l7.9-17.4c0.2-0.5,0.4-0.5,0.6,0l7.5,17.2c0.2,0.4,0.7,0.6,1.1,0.5
		c0.2-0.1,0.4-0.3,0.5-0.5l9-21.5c0.1-0.2,0.3-0.4,0.5-0.5l3.6-1.7c0.2-0.1,0.3-0.4,0.2-0.6c-0.1-0.2-0.2-0.3-0.4-0.3H172
		c-0.2,0-0.4,0.2-0.4,0.4s0.1,0.3,0.2,0.4l3.6,1.8c0.2,0.1,0.3,0.4,0.2,0.6L170,221c-0.1,0.1-0.2,0.2-0.4,0.2
		C169.7,221.4,169.7,221.3,169.6,221.3z M555.9,221.7l-7-15.2c-0.1-0.3,0-0.6,0.3-0.7l0,0l4-1.4c0.2-0.1,0.4-0.4,0.3-0.6
		c-0.1-0.2-0.2-0.3-0.4-0.3h-12.2c-0.4,0-0.7,0.3-0.7,0.6s0.2,0.5,0.4,0.6l2.6,1c0.3,0.1,0.6,0.4,0.8,0.7l9.9,21.7
		c0.2,0.4,0.7,0.6,1.1,0.4c0.2-0.1,0.3-0.2,0.4-0.4c2.9-6.5,5.9-13,8.9-19.6c1.1-2.4,2.1-3.3,4.6-3.7c0.3-0.1,0.6-0.4,0.5-0.7
		s-0.3-0.5-0.6-0.5h-9.7c-0.3,0-0.5,0.2-0.5,0.4s0.1,0.4,0.3,0.4l3.5,1.7c0.2,0.1,0.3,0.3,0.2,0.5l-6.3,15.1c0,0.1-0.2,0.2-0.3,0.1
		C555.9,221.8,555.9,221.7,555.9,221.7z M339,223.2l-2,3.6c-0.2,0.3-0.1,0.5,0.2,0.7c3.3,1.8,5.8,4.3,3.6,8.4
		c-0.7,1.3-2.4,2.1-3.4,3.3c-0.4,0.5-0.4,0.6,0.3,0.4c7.1-2.6,11.1-14.2,2-16.6C339.4,222.8,339.2,222.9,339,223.2z"/>
	<path class="st3" d="M522.3,74h7.2c0.1,0,0.3,0.1,0.3,0.3v70.3c0,0.1-0.1,0.3-0.3,0.3h-7.2c-0.1,0-0.3-0.1-0.3-0.3V74.3
		C522.1,74.1,522.2,74,522.3,74z"/>
	<path class="st3" d="M30.6,89.6c0-0.1-0.1-0.1-0.2-0.1s-0.1,0.1-0.1,0.1l-3.9,54.5c0,0.4-0.3,0.7-0.7,0.7H19
		c-0.5,0-0.7-0.2-0.7-0.7L23,77.7c0-0.4,0.3-0.6,0.7-0.6h9.4c0.3,0,0.7,0.2,0.8,0.6l19.2,54.8c0.1,0.2,0.2,0.3,0.4,0.2
		c0.1,0,0.2-0.1,0.2-0.2L74,77.7c0.1-0.3,0.4-0.5,0.7-0.5l9.6-0.1c0.2,0,0.4,0.2,0.4,0.4l5.9,67.1c0,0.2-0.1,0.4-0.4,0.4
		c0,0,0,0-0.1,0l-7.1-0.1c-0.3,0-0.6-0.3-0.7-0.6l-4.6-54.8c0-0.2-0.2-0.3-0.3-0.2c-0.1,0-0.2,0.1-0.2,0.2L57.5,143
		c-0.1,0.4-0.4,0.5-0.8,0.6l-6.9,0.1c-0.3,0-0.4-0.1-0.5-0.4L30.6,89.6z"/>
	<path class="st3" d="M364.3,84.3v60.1c0,0.2-0.1,0.3-0.3,0.3h-7.4c-0.2,0-0.3-0.1-0.3-0.3l0,0V84.3c0-0.2-0.1-0.3-0.3-0.3h-17.9
		c-0.2,0-0.3-0.1-0.3-0.3v-6.4c0-0.2,0.1-0.3,0.3-0.3h44.1c0.2,0,0.3,0.1,0.3,0.3l0.1,6.4c0,0.2-0.1,0.3-0.3,0.3l0,0h-17.7
		C364.4,84,364.3,84.1,364.3,84.3z"/>
	<path class="st3" d="M452.6,139.5c0-0.1-0.1-0.3-0.2-0.3s-0.1,0-0.2,0.1c-7.2,9-24.1,8.1-28.9-3.4c-1.8-4.4-1.5-8.7,1-13
		c4.9-8.5,18.4-8.4,27.1-7.9c0.8,0,1.2-0.3,1.2-1.1c-0.2-5.9-0.8-12.1-7.7-13.4c-6.2-1.2-12.2,0-18,3.4c-0.2,0.1-0.5,0.1-0.7-0.2
		c0-0.1-0.1-0.2-0.1-0.2V97c0-0.4,0.2-0.7,0.5-0.9c14.5-6.7,33.8-4.2,33.7,16.1c-0.1,10.6,0,21.3,0.1,31.9c0,0.4-0.2,0.6-0.6,0.6
		h-6.7c-0.3,0-0.5-0.2-0.5-0.5l0,0L452.6,139.5z M432,126.2c-1.8,2.7-1.9,5.3-0.4,7.8c4.5,7.6,17.1,5.2,20-2.5
		c1-2.8,0.8-6.5,0.8-9.7c0-0.3-0.2-0.5-0.5-0.5C445.8,121,435.8,120.3,432,126.2z"/>
	<path class="st3" d="M471.7,120.2c-0.7-20.8,19.1-32.6,37.8-24.7c0.2,0.1,0.4,0.3,0.4,0.6v6.2c0,0.3-0.2,0.5-0.5,0.5
		c-0.1,0-0.1,0-0.2,0c-31-13.2-40,30.7-14.5,35.8c5,1,9.8,0,14.6-2.8c0.4-0.3,0.6-0.1,0.6,0.4v6.3c0,0.4-0.2,0.7-0.6,0.9
		C491.2,151.8,472.3,139.7,471.7,120.2z"/>
	<path class="st3" d="M133.6,94.2c23.2,5.6,21.6,47.1-3.5,51.1C91.8,151.4,92.9,84.3,133.6,94.2z M135.6,103.4
		c-7-5.2-16.6-4.3-21.5,3c-6.7,10-4.7,30.2,9.9,31.9c8.8,1,14.4-3.7,16.7-12C142.6,119.8,141.9,108.1,135.6,103.4z"/>
	<path class="st3" d="M169.6,101.7c0,0.2,0.1,0.3,0.3,0.3c0.1,0,0.2-0.1,0.3-0.2c6.5-12,26.6-12.1,31,1.7c0.6,1.8,0.9,4.8,0.9,9.1
		c0,10.5,0,21,0,31.5c0,0.4-0.2,0.6-0.5,0.6h-6.7c-0.4,0-0.6-0.2-0.6-0.6c0.3-10.6,0.2-21.3-0.1-31.8c-0.2-6.3-2.5-11.4-9.1-12
		c-9.3-0.9-15.1,7.4-15.2,16.2c-0.2,11.4-0.2,20.7-0.1,27.9c0,0.3-0.2,0.5-0.5,0.5l-6.8-0.1c-0.3,0-0.5-0.2-0.5-0.5V94.5
		c0-0.5,0.2-0.8,0.8-0.8h6.4c0.4,0,0.6,0.2,0.6,0.6v7.4H169.6z"/>
	<path class="st3" d="M224.9,96.2c7.2-4.4,18-4,24.6,1.6c6.8,5.7,8.1,15.9,6.8,24.2c0,0.3-0.2,0.5-0.5,0.5h-33.7
		c-0.4,0-0.5,0.2-0.5,0.5c2,16.1,19.7,18.3,31.5,12.2c0.2-0.1,0.4,0,0.5,0.1c0,0,0,0.1,0,0.2l-0.1,6.3c0,0.3-0.2,0.6-0.5,0.7
		c-15.5,6.5-35.1,1.9-39-16.5C211.7,114.8,214.8,102.4,224.9,96.2z M222.5,116.2l26.3-0.3c0.3,0,0.6-0.3,0.6-0.6l0,0v-0.2
		c-0.1-8.3-5.9-15-12.9-14.9l0,0h-1.9c-7,0.1-12.7,6.9-12.6,15.2v0.2C221.9,116,222.2,116.2,222.5,116.2L222.5,116.2z"/>
	<path class="st3" d="M400,102.4c0.9-1.1,1.4-2.7,2.2-3.7c3.5-4.2,8.2-5.9,13.9-5.2c0.3,0,0.4,0.2,0.4,0.5v6.7
		c0,0.4-0.2,0.6-0.6,0.5c-10.5-2.7-15.8,7.1-16,15.9c-0.2,9.1-0.2,18.1-0.2,27.2c0,0.3-0.2,0.5-0.5,0.5h-6.8c-0.4,0-0.6-0.2-0.6-0.6
		l0.2-49.8c0-0.4,0.2-0.6,0.6-0.6h6.5c0.4,0,0.6,0.2,0.6,0.7l-0.1,7.9C399.7,102.6,399.8,102.6,400,102.4z"/>
	<path class="st3" d="M575.9,123.1c1.8,16.1,19.7,18.4,31.5,12c0.3-0.1,0.4-0.1,0.4,0.2v6.5c0,0.4-0.2,0.6-0.5,0.8
		c-17.1,7-37.3,0.7-39.5-19.8c-4.1-38.8,49.6-39.5,42.8-0.7c-0.1,0.3-0.2,0.5-0.5,0.5h-33.6C576,122.5,575.9,122.7,575.9,123.1z
		 M576.4,116.1l26.9-0.1c0.1,0,0.2-0.1,0.2-0.2V115c0-8.2-6-14.8-13.4-14.8l0,0h-0.8c-7.3,0-13.3,6.7-13.2,15v0.7
		C576.1,116,576.2,116.1,576.4,116.1z"/>
	<path class="st3" d="M631.1,102c0,0.2,0.1,0.3,0.3,0.3c0.1,0,0.2-0.1,0.3-0.2c3-6.4,8.1-9.3,15.4-8.7c0.4,0,0.6,0.2,0.6,0.6
		l0.1,6.8c0,0.3-0.2,0.5-0.5,0.5h-0.1c-10.5-3-15.6,7.1-15.8,15.8c-0.1,9.1-0.2,18.2-0.3,27.4c0,0.3-0.1,0.4-0.4,0.4l-6.6-0.1
		c-0.5,0-0.7-0.2-0.7-0.7V94.5c0-0.4,0.2-0.6,0.6-0.6h6.4c0.5,0,0.8,0.2,0.8,0.8L631.1,102L631.1,102z"/>
	<path class="st3" d="M287.2,133l13.6-38.8c0.1-0.3,0.4-0.5,0.7-0.5h7.5c0.4,0,0.5,0.2,0.4,0.5c-5.8,15.8-11.7,31.5-17.5,47.3
		c-4.5,12.2-11.2,23-26.2,20.2c-0.2,0-0.4-0.2-0.4-0.4v-6c0-0.3,0.2-0.5,0.5-0.4c8.2,0.8,13.8-2.7,16.8-10.5
		c0.3-0.7,0.3-1.2,0.1-1.7c-6.6-16.1-13.2-32.2-19.9-48.3c-0.1-0.3,0-0.6,0.3-0.7c0.1,0,0.1,0,0.2,0h7.5c0.4,0,0.7,0.2,0.8,0.6
		l15.2,38.7c0,0.1,0.2,0.2,0.3,0.1C287.2,133.1,287.2,133.1,287.2,133z"/>
	<path class="st3" d="M551.2,93.8h8.6c0.2,0,0.3,0.2,0.3,0.3c0,0.1,0,0.1-0.1,0.2l-19.6,23.6c-0.1,0.1-0.1,0.3,0,0.4l20.1,26
		c0.1,0.1,0.1,0.4-0.1,0.5c-0.1,0-0.1,0.1-0.2,0.1l-8.8-0.1c-0.1,0-0.2,0-0.3-0.1l-20.2-26.3c-0.1-0.1-0.1-0.3,0-0.4l19.8-24
		C551,93.8,551.1,93.7,551.2,93.8z"/>
	<path class="st3" d="M25.5,172c204.9,0.3,409.8-0.6,614.7,0.1c0,0,0.9-0.1,2.7-0.2c7.7-0.5,9.2,7.9,0.5,7.9
		c-206.8,0-413.5,0-620.3,0c-2.5,0-5.1-0.7-6.2-2.8c-0.5-1-0.3-2.2,0.5-2.9C20,171.6,21.5,172,25.5,172z"/>
	<circle class="st4" cx="261.6" cy="192.6" r="3.2"/>
	<circle class="st4" cx="576.8" cy="192.6" r="3.2"/>
	<path class="st4" d="M32.2,225.5c3.1-1.8,3.8-6.3,1.8-9.1s-8.3-5.3-11.9-7.6c-5.3-3.3-5.4-9.1-1.6-13.6c4.6-5.5,11-4.4,17.2-2
		c0.2,0.1,0.4,0.3,0.4,0.5l0.6,8c0,0.3-0.2,0.5-0.4,0.6c-0.2,0-0.5-0.1-0.6-0.3c-1.8-4.5-3.4-8-9-8.2c-5.7-0.2-7.8,6.2-4,10.1
		c4.6,4.8,14.1,5.4,14.9,12.7c1.5,12.7-13.5,14.6-22.2,9.8c-0.3-0.2-0.5-0.4-0.5-0.8l-0.1-7.8c0-1.1,0.2-1.1,0.7-0.1l2.3,5.1
		c0.1,0.3,0.3,0.5,0.6,0.7C23.7,225.9,28.6,227.6,32.2,225.5z"/>
	<path class="st4" d="M466.3,224.3c2.2,1.2,4.6,1.5,7,0.9c0.2-0.1,0.5,0.1,0.5,0.3c0,0.1,0,0.3-0.1,0.4c-2.7,3.6-9.1,4.8-11.5,0.5
		c-2-3.5-0.9-15.4-0.9-19.8c0-0.3-0.2-0.5-0.5-0.5h-3.3c-0.2,0-0.3-0.2-0.3-0.4c0-0.1,0.1-0.2,0.2-0.3l3.5-1.6
		c0.3-0.2,0.6-0.4,0.8-0.7l3.5-5.4c0.4-0.6,0.6-0.5,0.6,0.2v5.2c0,0.3,0.2,0.5,0.5,0.5h6.4c0.3,0,0.5,0.2,0.5,0.5c0,0,0,0,0,0.1
		l-0.1,1.5c0,0.3-0.2,0.5-0.5,0.5h-6.2c-0.3,0-0.5,0.2-0.5,0.5v16.9C465.8,223.8,466,224.1,466.3,224.3z"/>
	<path class="st4" d="M53.9,224.4c2.1,0.9,4.3,1.2,6.6,0.8c0.3,0,0.5,0.1,0.6,0.4c0,0.1,0,0.2-0.1,0.3c-1.5,2.4-3.8,3.5-6.9,3.1
		c-4.6-0.6-5.3-3.4-5.3-7.7c0-4.9,0-9.7,0-14.6c0-0.4-0.2-0.7-0.7-0.7h-3.2c-0.2,0-0.4-0.2-0.4-0.4c0-0.1,0.1-0.3,0.2-0.3l3.6-1.6
		c0.3-0.1,0.5-0.3,0.7-0.6l3.5-5.4c0.1-0.2,0.3-0.2,0.5-0.1c0.1,0.1,0.2,0.2,0.2,0.3v5c0,0.3,0.3,0.6,0.6,0.6l0,0h5.9
		c0.4,0,0.7,0.2,0.8,0.6l0.3,1.2c0.1,0.3-0.1,0.6-0.4,0.7h-0.1h-6.4c-0.3,0-0.5,0.2-0.5,0.5l0.1,17
		C53.3,223.9,53.5,224.2,53.9,224.4z"/>
	<path class="st4" d="M243.8,224.4c2.1,0.9,4.3,1.2,6.6,0.9c0.4-0.1,0.7,0.2,0.8,0.6c0,0.2,0,0.5-0.2,0.6
		c-4.2,3.7-12.1,3.9-12.1-3.3c0-5.5,0-11,0-16.5c0-0.5-0.2-0.7-0.7-0.7h-3c-0.2,0-0.4-0.2-0.4-0.4s0.1-0.3,0.3-0.4l3.6-1.6
		c0.1,0,0.2-0.1,0.2-0.2l3.7-5.6c0.1-0.2,0.4-0.3,0.6-0.1c0.1,0.1,0.2,0.2,0.2,0.4v5c0,0.4,0.2,0.5,0.5,0.5l6.1-0.2
		c0.3,0,0.6,0.2,0.6,0.5l0,0v1.3c0,0.5-0.2,0.8-0.8,0.8h-5.9c-0.4,0-0.6,0.2-0.6,0.6l-0.1,16.8C243.2,223.9,243.4,224.2,243.8,224.4
		z"/>
	<path class="st4" d="M396.9,224.4c2.2,1,4.5,1.3,6.9,0.9c0.2,0,0.4,0.1,0.4,0.3c0,0.1,0,0.2,0,0.2c-2.4,3.9-8.9,4.6-11.4,0.7
		c-2-3.1-0.9-15.6-0.9-19.7c0-0.5-0.2-0.7-0.7-0.7h-2.8c-0.3,0-0.5-0.2-0.5-0.5c0-0.2,0.1-0.4,0.3-0.4l3.3-1.5
		c0.3-0.2,0.6-0.4,0.8-0.7l3.2-5.1c0.1-0.2,0.3-0.2,0.5-0.1c0.1,0.1,0.2,0.2,0.2,0.3v5c0,0.3,0.2,0.5,0.5,0.5h6.3
		c0.4,0,0.6,0.2,0.7,0.6l0.2,1.1c0.1,0.5-0.1,0.8-0.7,0.8h-6.4c-0.4,0-0.7,0.3-0.7,0.6l0,0l0.4,16.8
		C396.4,223.9,396.6,224.2,396.9,224.4z"/>
	<path class="st4" d="M574.8,225.3v-15.8c0-0.3-0.1-0.5-0.3-0.7l-2.8-2.3c-0.2-0.2-0.2-0.5-0.1-0.7c0-0.1,0.1-0.1,0.2-0.1l6.9-2.8
		c0.4-0.2,0.6,0,0.6,0.4v22.2c0,0.4,0.2,0.6,0.5,0.8l2.6,1.2c0.3,0.1,0.4,0.4,0.3,0.7c-0.1,0.2-0.3,0.3-0.5,0.3h-10.5
		c-0.2,0-0.4-0.2-0.4-0.4c0-0.1,0.1-0.3,0.2-0.4l2.9-1.6C574.6,225.9,574.8,225.7,574.8,225.3z"/>
	<path class="st4" d="M103.8,205.5c0.1,0.4,0.4,0.6,0.7,0.5c0.1,0,0.2-0.1,0.3-0.1c2.1-1.8,4.6-2.8,7.4-2.9
		c14.6-0.9,14.3,30-7.7,25.6c-0.4-0.1-0.8,0.2-0.8,0.5c0,0.1,0,0.1,0,0.2v9c0,0.3,0.2,0.6,0.5,0.8l3.3,1.4c0.3,0.1,0.4,0.4,0.3,0.7
		c-0.1,0.2-0.3,0.3-0.5,0.3H96.1c-0.2,0-0.4-0.2-0.4-0.4c0-0.1,0.1-0.3,0.2-0.3l3.1-1.7c0.4-0.2,0.5-0.5,0.5-0.9v-28.3
		c0-0.3-0.1-0.6-0.4-0.8l-2.6-2.4c-0.2-0.2-0.3-0.6,0-0.9c0.1-0.1,0.1-0.1,0.2-0.1l6.1-2.7c0.4-0.2,0.6-0.1,0.6,0.3L103.8,205.5z
		 M104.3,224.4c18.8,11,17.2-25.5,0.4-16.4c-0.3,0.2-0.5,0.4-0.6,0.7c-1,4.6,0.1,10.2-0.2,15C103.9,224,104.1,224.2,104.3,224.4z"/>
	<path class="st4" d="M215,205.9c3.3-4.2,8.4-3.5,12.9-1.3c0.3,0.1,0.4,0.3,0.4,0.6v4.9c0,0.3-0.3,0.6-0.6,0.6s-0.5-0.2-0.6-0.4
		c-2-6.5-12.2-7.3-9.6,0c0.1,0.3,0.3,0.6,0.6,0.8c4.8,3.3,14.9,5.9,10,13.9c-3.2,5.2-10.6,4.6-15.3,2.2c-0.3-0.2-0.5-0.4-0.5-0.7
		v-3.8c0-2.6,0.6-2.7,1.7-0.4c1.8,3.8,4.9,5.3,9.2,4.4c0.5-0.1,0.9-0.4,1.1-0.8c3.6-5.4-2.9-7.4-6.3-9.2
		C213.4,214.3,211.3,210.5,215,205.9z"/>
	<path class="st4" d="M259.6,225.8v-16.4c0-0.1-0.1-0.3-0.2-0.4l-2.9-2.4c-0.2-0.2-0.2-0.5-0.1-0.7c0-0.1,0.1-0.1,0.2-0.1l6.8-3
		c0.2-0.1,0.5,0,0.6,0.2c0,0.1,0,0.1,0,0.2v22.4c0,0.2,0.1,0.3,0.3,0.4l3.1,1.6c0.2,0.1,0.3,0.4,0.2,0.6c-0.1,0.2-0.2,0.3-0.4,0.3
		l-11,0.1c-0.3,0-0.5-0.2-0.5-0.5c0-0.2,0.1-0.4,0.3-0.4l3.3-1.5C259.4,226.1,259.6,225.9,259.6,225.8z"/>
	<path class="st4" d="M372.7,212c2.6,1.2,5,2.7,7.2,4.5c4.6,3.7,2,10.2-2.9,11.9c-3.5,1.2-7.2,0.8-11-1.2c-0.3-0.1-0.4-0.4-0.4-0.7
		v-5.1c0-0.3,0.3-0.6,0.6-0.6c0.2,0,0.5,0.2,0.5,0.4c2.5,7.6,14.3,7.5,11.3-0.3c-0.1-0.3-0.3-0.6-0.6-0.8c-2-1.3-4.1-2.4-6.2-3.6
		c-11.7-6.2-0.6-18.1,9.8-12c0.3,0.2,0.4,0.4,0.4,0.8v4.8c0,0.2-0.2,0.4-0.4,0.4c-0.1,0-0.3-0.1-0.4-0.2c-1.6-2.5-3.6-6-7.1-5.3
		C369.2,206,369,210.3,372.7,212z"/>
	<path class="st4" d="M422.9,213c-0.9-3.9,0.6-7.1-5.1-7.5c-3.5-0.2-3.8,2.4-3.7,5.5c0,0.3-0.2,0.5-0.5,0.6c0,0,0,0-0.1,0l-3.3-0.3
		c-0.3,0-0.4-0.2-0.5-0.4c-0.3-1.7,0-3.1,0.9-4.1c3.8-4,8.3-5,13.6-2.9c1.5,0.6,3.1,2.5,3.1,3.9c0,5.6,0,11.3,0,16.9
		c0,0.4,0.3,0.7,0.6,0.7l4.2,0.4c0.2,0,0.3,0.1,0.2,0.4c-1.8,3.5-7.2,4.1-8.7-0.1c-0.1-0.4-0.5-0.6-0.9-0.4c-0.1,0-0.2,0.1-0.2,0.1
		c-3.4,3.1-10.7,5.1-13.2-0.1c-3.8-7.7,8.3-10.5,12.8-11.4C422.6,214.3,423,213.7,422.9,213L422.9,213z M413.3,221.1
		c-1.9,5.8,6.4,4.5,8.9,3.4c0.3-0.1,0.5-0.4,0.5-0.7l0.1-6.9c0-0.3-0.2-0.5-0.5-0.5C419.3,216.5,414.4,217.8,413.3,221.1z"/>
	<path class="st4" d="M444.2,207c0,0.2,0.3,0.4,0.5,0.4s0.3-0.1,0.3-0.3c1.3-3.2,6.6-6.2,9.2-2.7c0.2,0.2,0.2,0.5,0.1,0.8l-1.1,3.4
		c-0.1,0.2-0.2,0.3-0.4,0.1c-3-2-5.7-1.8-8.2,0.6c-0.2,0.2-0.4,0.6-0.4,0.9v15.2c0,0.4,0.2,0.6,0.5,0.8l3.2,1.3
		c0.2,0.1,0.4,0.4,0.3,0.6c-0.1,0.2-0.3,0.3-0.5,0.3h-11.3c-0.2,0-0.4-0.2-0.4-0.4s0.1-0.3,0.2-0.4l3.3-1.8c0.3-0.2,0.4-0.4,0.4-0.8
		v-15.5c0-0.3-0.1-0.5-0.3-0.7l-3-2.5c-0.3-0.2-0.3-0.4,0.1-0.6l6.4-2.9c0.3-0.2,0.5-0.1,0.6,0.3L444.2,207z"/>
	<path class="st4" d="M596.9,226.1l3.4,1.6c0.2,0.1,0.3,0.4,0.2,0.6c-0.1,0.2-0.2,0.2-0.4,0.2h-11.4c-0.2,0-0.4-0.2-0.4-0.4
		c0-0.1,0.1-0.3,0.2-0.3l3.2-1.9c0.2-0.1,0.3-0.3,0.3-0.6v-15.5c0-0.4-0.1-0.7-0.4-1l-2.6-2.4c-0.3-0.3-0.3-0.6,0.1-0.7l6-2.7
		c0.4-0.2,0.7,0,0.7,0.4l0.5,2.9c0,0.3,0.3,0.4,0.5,0.4c0.1,0,0.2-0.1,0.3-0.1c4.8-5.1,15.6-5.6,15.6,3.7c0,5.1,0,10.1,0,15.2
		c0,0.4,0.2,0.6,0.5,0.8l2.8,1.4c0.2,0.1,0.3,0.4,0.2,0.6c-0.1,0.2-0.2,0.3-0.4,0.3h-11.5c-0.2,0-0.3-0.2-0.3-0.4
		c0-0.1,0.1-0.2,0.2-0.3l3.6-1.8c0.3-0.2,0.5-0.4,0.5-0.8c0-3.7,0.9-12.8-0.8-15.8c-2-3.7-7.6-2.6-10.6-0.5
		c-0.2,0.2-0.4,0.4-0.4,0.7v16C596.6,225.8,596.7,226,596.9,226.1z"/>
	<path class="st4" d="M626.2,228.8l-2.5-1.2c-0.2-0.1-0.4-0.3-0.5-0.5c-2.1-4.1-0.1-5.9,3.4-7.8c0.3-0.1,0.3-0.4,0.2-0.7
		c0-0.1-0.1-0.1-0.1-0.1c-8.3-7.7-0.8-17.4,8.5-15.5c4.1,0.8,6.5,0.6,10.2,0.4c0.3,0,0.6,0.2,0.6,0.5l0,0v1.7c0,0.4-0.2,0.7-0.7,0.6
		l-3.9-0.3c-0.2,0-0.5,0.2-0.5,0.4c0,0.1,0,0.2,0.1,0.3c4.4,6.6-0.5,13.7-7.9,13.8c-1.9,0-7.6-2.1-6.7,2.5c1.1,5.7,16.7-2.4,18.3,8
		c2,12.8-25,15.4-22.6,2.7c0.4-2.1,2.3-3.1,4-4.1C626.7,229.3,626.7,229.1,626.2,228.8z M633.7,218.2c2.9-0.4,4.9-3.5,4.5-7.1
		s-3.1-6.2-6-5.9c-2.9,0.4-4.9,3.5-4.5,7.1l0,0C628.1,215.9,630.8,218.5,633.7,218.2L633.7,218.2z M627.1,230.4
		c-6.4,13.1,15.7,12.5,13.7,2c-0.8-4.4-8.8-3.2-12-3.1C628.1,229.3,627.4,229.7,627.1,230.4z"/>
	<path class="st4" d="M78.3,229.1c-6.8,0.1-12.4-5.7-12.5-13l0,0c-0.1-7.3,5.4-13.2,12.2-13.3c6.8-0.1,12.4,5.7,12.5,13l0,0
		C90.5,223.1,85.1,229.1,78.3,229.1z M79.1,226.8c4-0.4,6.7-5.5,6.2-11.5l0,0c-0.5-6-4.2-10.6-8.2-10.2l0,0c-4,0.4-6.7,5.5-6.2,11.5
		l0,0C71.5,222.6,75.2,227.1,79.1,226.8L79.1,226.8z"/>
	<path class="st4" d="M204.2,225.6l3.3,0.2c0.4,0,0.4,0.2,0.2,0.5c-2.2,3.2-6.8,4.2-8.7,0.2c-0.2-0.5-0.8-0.7-1.2-0.4
		c-0.1,0-0.1,0.1-0.2,0.1c-2.9,2.4-7.6,3.9-11,1.9c-3.7-2.2-3-7.2,0-9.7c2.8-2.4,7.4-3.3,11-3.9c0.4-0.1,0.6-0.3,0.6-0.6
		c1.4-10.8-10.7-10.4-8.5-2.9c0.1,0.4,0,0.6-0.4,0.6h-3.4c-0.4,0-0.7-0.2-0.7-0.6c-1.3-8.4,17.1-11.6,17.4-2.3
		c0.2,5.4,0.3,10.6,0.3,15.5C202.8,225.1,203.3,225.6,204.2,225.6z M188.7,223.3c1.6,3.5,6.5,2.3,9.1,1c0.3-0.2,0.4-0.4,0.4-0.8
		v-6.6c0-0.3-0.2-0.5-0.5-0.5C194,216.8,186.7,218.8,188.7,223.3z"/>
	<path class="st4" d="M298,226.3l2.6,1.3c0.3,0.1,0.4,0.4,0.2,0.7c-0.1,0.2-0.3,0.3-0.5,0.3h-10.4c-0.4,0-0.7-0.3-0.7-0.7
		c0-0.3,0.2-0.5,0.4-0.6l2.9-1.2c0.3-0.1,0.4-0.3,0.4-0.6c0.1-4.4,0.1-8.8,0-13.2c0-6.3-7.3-6.1-11.3-3.4c-0.3,0.2-0.5,0.5-0.5,0.9
		l-0.2,15.7c0,0.2,0.1,0.5,0.4,0.6l3.6,1.7c0.2,0.1,0.3,0.3,0.2,0.6c-0.1,0.2-0.2,0.2-0.4,0.2l-11.1-0.1c-0.3,0-0.6-0.3-0.6-0.6
		c0-0.2,0.1-0.5,0.4-0.6l2.7-1.2c0.3-0.1,0.5-0.4,0.5-0.8v-15.9c0-0.3-0.1-0.6-0.4-0.8l-2.7-2.2c-0.4-0.3-0.3-0.5,0.1-0.7l6.2-2.9
		c0.3-0.1,0.6,0,0.7,0.3c0,0.1,0,0.1,0,0.2l0.3,3.3c0,0.2,0.2,0.3,0.4,0.3c0.1,0,0.2-0.1,0.2-0.1c2.9-3.1,6.2-4.4,10.1-3.9
		c5,0.7,5.7,4.4,5.8,9.1c0,4.5,0,8.9,0,13.4C297.6,225.9,297.7,226.1,298,226.3z"/>
	<path class="st4" d="M325.8,206.7c5.7,8.6-3.4,15.8-11.7,13.1c-0.3-0.1-0.6-0.1-0.9,0c-1.2,0.4-1.9,1.2-2,2.3
		c-0.4,4.4,10.9,3.1,13.6,3.6c6.6,1.3,5.7,10.2,1.2,13.4c-4.2,2.9-14,4.8-18-0.2c-2.9-3.6-0.9-7.8,3.2-9.3c0.6-0.2,0.6-0.4,0-0.7
		l-2.4-1.3c-0.1-0.1-0.3-0.2-0.4-0.3c-2-2.6-1.8-4.9,0.8-7c0.2-0.2,0.5-0.3,0.7-0.4l1.3-0.4c0.3-0.1,0.4-0.4,0.3-0.6
		c0-0.1-0.1-0.2-0.1-0.2c-8.2-7.4-1.6-17.4,8.2-15.7c4.2,0.7,6.9,0.5,10.8,0.3c0.4,0,0.6,0.2,0.6,0.6v1.7c0,0.4-0.2,0.6-0.6,0.6
		l-4.4-0.1C325.7,206.2,325.6,206.4,325.8,206.7z M318.5,218.2c2.9-0.4,4.9-3.6,4.5-7.2c-0.4-3.6-3.2-6.2-6.1-5.9l0,0
		c-2.9,0.4-4.9,3.6-4.5,7.2C312.9,215.9,315.6,218.6,318.5,218.2L318.5,218.2z M312.7,229.6c-7.4,8.4,6.2,15.2,11.7,7.2
		c1.5-2.1,1.8-5.5-0.6-6.9c-2.1-1.2-7.6-0.8-10.4-0.7C313.1,229.3,312.9,229.4,312.7,229.6z"/>
	<path class="st4" d="M506,223.8c1.3-5.2-9.2-6.3-11.5-10.8c-1.5-2.9-0.3-6.1,2.2-8c3.5-2.8,7.5-2.9,11.9-0.2
		c0.3,0.2,0.4,0.4,0.4,0.7v4.8c0,0.2-0.2,0.4-0.5,0.4c-0.1,0-0.3-0.1-0.3-0.2c-2.1-2.5-3.2-6-7.1-5.4c-1.6,0.2-2.7,1.1-3.2,2.5
		c-1.5,4.6,8.1,6.4,10.4,9.6c1.8,2.4,2,4.9,0.7,7.4c-3,5.4-10.4,5.2-15.3,2.7c-0.3-0.2-0.5-0.4-0.5-0.8v-5c0-0.2,0.2-0.4,0.4-0.4
		c0.1,0,0.2,0.1,0.3,0.2c1.2,1.8,2.2,3.9,4,4.9C500.8,227.7,505,227.5,506,223.8z"/>
	<path class="st4" d="M530.6,213.8c1.8-9.8-10-11.2-8.7-2.8c0.1,0.4-0.1,0.6-0.5,0.6l-3.5-0.4c-0.4,0-0.6-0.3-0.6-0.7l0,0
		c0.9-8.6,17.1-10.9,17.7-1.9c0.4,5.3,0.4,10.6,0,15.9c0,0.4,0.3,0.8,0.7,0.9l4.4,0.5c0.2,0,0.3,0.1,0.2,0.3c-2.3,4.1-6.7,3.9-9-0.2
		c-0.1-0.2-0.5-0.3-0.7-0.2c0,0,0,0-0.1,0c-4.2,3.3-14.4,5.8-13.8-3.3c0.4-5.7,8.2-7.1,13.3-8.1
		C530.3,214.4,530.6,214.1,530.6,213.8z M530.3,216.5c-12.5,0.1-11.7,13.3-0.1,8.1c0.3-0.1,0.5-0.4,0.5-0.7l0.1-7
		C530.6,216.6,530.5,216.5,530.3,216.5z"/>
	<path class="st4" d="M169.6,221.3c0.1,0.1,0.2,0.2,0.4,0.1c0.1,0,0.1-0.1,0.2-0.2l5.6-14.5c0.1-0.2,0-0.5-0.2-0.6l-3.6-1.8
		c-0.2-0.1-0.3-0.3-0.2-0.5c0.1-0.1,0.2-0.2,0.4-0.2h10.2c0.3,0,0.5,0.2,0.5,0.5c0,0.2-0.1,0.3-0.3,0.4l-3.6,1.7
		c-0.2,0.1-0.4,0.3-0.5,0.5l-9,21.5c-0.2,0.4-0.7,0.6-1.1,0.5c-0.2-0.1-0.4-0.2-0.5-0.5l-7.5-17.2c-0.2-0.5-0.4-0.5-0.6,0l-7.9,17.4
		c-0.2,0.4-0.6,0.5-1,0.4c-0.2-0.1-0.3-0.2-0.4-0.4l-8.4-21.8c-0.1-0.3-0.3-0.5-0.6-0.6l-3.2-1.5c-0.2-0.1-0.3-0.4-0.2-0.6
		c0.1-0.2,0.2-0.2,0.4-0.2h12.6c0.2,0,0.4,0.2,0.4,0.4s-0.1,0.3-0.3,0.4l-3.5,1.3c-0.5,0.2-0.8,0.8-0.6,1.3l0,0l5.4,14.5
		c0.1,0.2,0.3,0.3,0.4,0.2c0.1,0,0.2-0.1,0.2-0.2l7.5-17.4c0.2-0.5,0.7-0.7,1.2-0.5c0.2,0.1,0.4,0.3,0.5,0.5L169.6,221.3z"/>
	<path class="st4" d="M555.9,221.7c0.1,0.1,0.2,0.2,0.3,0.1l0.1-0.1l6.3-15.1c0.1-0.2,0-0.4-0.2-0.5l-3.5-1.7
		c-0.2-0.1-0.3-0.4-0.2-0.6c0.1-0.2,0.2-0.3,0.4-0.3h9.7c0.3,0,0.6,0.3,0.6,0.6s-0.2,0.5-0.5,0.6c-2.6,0.4-3.5,1.3-4.6,3.7
		c-3,6.6-6,13.2-8.9,19.6c-0.2,0.4-0.7,0.6-1.1,0.4c-0.2-0.1-0.3-0.2-0.4-0.4l-9.9-21.7c-0.1-0.3-0.4-0.6-0.8-0.7l-2.6-1
		c-0.3-0.1-0.5-0.5-0.4-0.8s0.3-0.4,0.6-0.4H553c0.3,0,0.5,0.2,0.4,0.5c0,0.2-0.1,0.4-0.3,0.4l-4,1.4c-0.3,0.1-0.4,0.4-0.3,0.7l0,0
		L555.9,221.7z"/>
	<path class="st4" d="M339,223.2c0.1-0.2,0.3-0.3,0.6-0.3c9.2,2.4,5.1,14-2,16.6c-0.6,0.2-0.7,0.1-0.3-0.4c1-1.2,2.7-2,3.4-3.3
		c2.2-4-0.2-6.6-3.6-8.4c-0.3-0.2-0.4-0.4-0.2-0.7L339,223.2z"/>
</g>
</svg>
